<svg preserveAspectRatio="none" width="100%" height="100%" overflow="visible" style="display: block;" viewBox="0 0 27.0716 27.4511" fill="none" xmlns="http://www.w3.org/2000/svg">
<path id="Vector" d="M25.2934 11.2331C25.9143 9.36307 25.6993 7.3161 24.7039 5.61631C23.2067 3.01014 20.1979 1.6694 17.2597 2.29927C14.6986 -0.549869 10.3137 -0.783041 7.46477 1.77825C6.56068 2.59126 5.88609 3.62712 5.50909 4.78318C3.57867 5.17937 1.91282 6.38805 0.937558 8.10021C-0.575624 10.7023 -0.23213 13.9847 1.78699 16.2174C1.16398 18.0864 1.37698 20.1339 2.37133 21.8342C3.87007 24.4414 6.88096 25.7821 9.82068 25.1512C11.1286 26.624 13.0069 27.4623 14.9765 27.451C17.9885 27.4535 20.6569 25.5087 21.5765 22.6405C23.5064 22.2438 25.1722 21.0351 26.148 19.3234C27.6431 16.726 27.2981 13.4611 25.2934 11.2336V11.2331ZM14.9765 25.6547C13.7744 25.6568 12.6098 25.2353 11.6871 24.4641L11.8496 24.3723L17.3139 21.2172C17.5903 21.0547 17.761 20.7586 17.7631 20.4377V12.7317L20.0731 14.0683C20.0963 14.0802 20.1123 14.1023 20.1164 14.1276V20.513C20.1102 23.3498 17.8126 25.648 14.9765 25.6542V25.6547ZM3.92938 20.9361C3.32648 19.895 3.10986 18.6745 3.31822 17.489L3.48068 17.5865L8.95012 20.7411C9.22552 20.9031 9.56746 20.9031 9.84287 20.7411L16.5243 16.8886V19.5566C16.5227 19.5845 16.5088 19.6103 16.4866 19.6268L10.9522 22.8195C8.49265 24.2366 5.35075 23.3942 3.92988 20.9361H3.92938ZM2.49047 9.03084C3.0975 7.9826 4.05573 7.18352 5.19551 6.77443V13.2682C5.19139 13.5875 5.36107 13.8841 5.63905 14.042L12.288 17.8785L9.97797 19.2151C9.9527 19.2285 9.92228 19.2285 9.89701 19.2151L4.37343 16.0276C1.91902 14.6048 1.07734 11.4642 2.49047 9.0035V9.03084ZM21.4687 13.441L14.7981 9.56631L17.1024 8.23537C17.1277 8.22196 17.1581 8.22196 17.1834 8.23537L22.707 11.4281C25.1655 12.8472 26.0082 15.9915 24.5894 18.4501C23.9922 19.4854 23.053 20.2799 21.9333 20.6977V14.204C21.9235 13.8852 21.7466 13.5952 21.4681 13.441H21.4687ZM23.7679 9.98313L23.6054 9.88564L18.1468 6.70376C17.8693 6.54126 17.5258 6.54126 17.2489 6.70376L10.5731 10.5563V7.88819C10.5706 7.86085 10.583 7.83351 10.6056 7.81804L16.1292 4.63049C18.5913 3.21185 21.7374 4.05787 23.1557 6.52062C23.755 7.56062 23.9716 8.77755 23.7684 9.96044V9.98211L23.7679 9.98313ZM9.31267 14.7126L7.00267 13.3817C6.97946 13.3677 6.96348 13.3435 6.95935 13.3167V6.94725C6.96296 4.10481 9.26988 1.80404 12.1111 1.80765C13.3102 1.8092 14.4716 2.22963 15.3938 2.99673L15.2313 3.08855L9.76704 6.2436C9.4906 6.4061 9.3199 6.70221 9.31783 7.02308L9.31267 14.7126ZM10.5675 12.0069L13.5428 10.2916L16.5238 12.0069V15.4374L13.5536 17.1532L10.5731 15.4374L10.568 12.0069H10.5675Z" fill="var(--fill-0, #FF5B26)"/>
</svg>
