<svg preserveAspectRatio="none" width="100%" height="100%" overflow="visible" style="display: block;" viewBox="0 0 79.2175 15.6915" fill="none" xmlns="http://www.w3.org/2000/svg">
<g id="Model Icon Container">
<path id="Vector" d="M0.00975705 0.311028C0.59518 0.245958 1.15458 0.15486 1.71399 0.115818C3.14502 -0.00130848 4.57606 -0.0663834 6.0201 0.102799C7.19095 0.245953 8.32276 0.506239 9.35051 1.09187C11.0417 2.06792 12.0695 3.53851 12.4728 5.43856C12.85 7.22148 12.759 8.99139 12.1735 10.7092C11.3149 13.221 9.50662 14.6785 6.96979 15.3162C5.49972 15.6806 3.99063 15.7327 2.49455 15.6676C1.76603 15.6416 1.0375 15.5765 0.295964 15.5375C0.113832 15.5244 0.00975705 15.4854 0.00975705 15.2511C0.0227665 10.3318 0.00975705 5.42555 0.00975705 0.506239C-0.00325235 0.467197 -0.00325235 0.415141 0.00975705 0.311028ZM2.00019 1.80764C2.00019 1.93778 2.00019 2.05491 2.00019 2.15902C2.00019 4.55361 2.00019 6.9612 2.00019 9.35578C2.00019 10.8003 2.00019 12.2449 2.00019 13.6895C2.00019 13.8326 1.98719 13.9628 2.20835 13.9888C3.48327 14.1059 4.74518 14.1449 6.00709 13.8586C8.10161 13.3901 9.55866 12.1798 10.2091 10.1106C10.6645 8.65303 10.7165 7.15641 10.3783 5.65979C10.04 4.16318 9.19439 3.01794 7.8154 2.31519C7.00881 1.89874 6.13719 1.70353 5.23954 1.63846C4.14675 1.56038 3.07998 1.59942 2.00019 1.80764Z" fill="var(--fill-0, #FF5B26)"/>
<path id="Vector_2" d="M26.6664 15.5507C25.9769 15.5507 25.3394 15.5377 24.689 15.5507C24.4938 15.5507 24.4808 15.4206 24.4418 15.2904C23.9604 13.8719 23.4661 12.4534 22.9977 11.0218C22.9067 10.7485 22.7896 10.6835 22.5164 10.6835C20.9162 10.6965 19.3161 10.6965 17.7159 10.6835C17.4948 10.6835 17.4037 10.7485 17.3256 10.9568C16.8703 12.3753 16.402 13.7938 15.9336 15.1993C15.8946 15.3035 15.8556 15.4206 15.8165 15.5117C15.127 15.5117 14.4506 15.5117 13.748 15.5117C13.9302 14.9781 14.0993 14.4575 14.2814 13.937C15.8165 9.43413 17.3517 4.91826 18.8738 0.415398C18.9648 0.155117 19.0689 0.0770329 19.3421 0.0900469C19.9535 0.116075 20.552 0.103061 21.1634 0.0900469C21.3455 0.0900469 21.4236 0.155116 21.4886 0.324298C22.7506 4.02029 24.0125 7.71627 25.2744 11.4123C25.7167 12.7007 26.159 13.976 26.5883 15.2644C26.6143 15.3555 26.6404 15.4336 26.6664 15.5507ZM17.885 9.10878C19.3941 9.10878 20.9162 9.10878 22.4253 9.10878C21.6448 6.71419 20.8642 4.33262 20.1357 2.10722C19.4201 4.34564 18.6526 6.72721 17.885 9.10878Z" fill="var(--fill-0, #FF5B26)"/>
<path id="Vector_3" d="M55.4168 0.129106C58.1878 0.129106 60.9588 0.129106 63.7298 0.129106C63.7298 0.68871 63.7298 1.22228 63.7298 1.7949C63.6257 1.7949 63.5087 1.80792 63.4046 1.80792C61.5182 1.80792 59.6188 1.80792 57.7325 1.80792C57.4723 1.80792 57.3942 1.87299 57.3942 2.14628C57.4073 3.53878 57.3942 4.9443 57.4072 6.3368C57.4072 6.4279 57.4203 6.519 57.4203 6.64914C59.4107 6.64914 61.3881 6.64914 63.3786 6.64914C63.3786 7.20874 63.3786 7.74232 63.3786 8.31494C61.4141 8.31494 59.4237 8.31494 57.4203 8.31494C57.4203 10.1759 57.4203 12.0109 57.4203 13.8849C59.6319 13.8849 61.8435 13.8849 64.0811 13.8849C64.0811 14.4576 64.0811 14.9911 64.0811 15.5377C61.193 15.5377 58.3179 15.5377 55.4168 15.5377C55.4168 10.4102 55.4168 5.26965 55.4168 0.129106Z" fill="var(--fill-0, #FF5B26)"/>
<path id="Vector_4" d="M71.8472 13.7675C74.293 13.7675 76.7388 13.7675 79.2105 13.7675C79.2105 14.3661 79.2105 14.9517 79.2105 15.5504C75.8671 15.5504 72.5367 15.5504 69.1152 15.5504C69.1803 15.186 69.2063 14.8216 69.3104 14.4832C69.6356 13.4161 70.2601 12.5181 71.0536 11.7633C72.1855 10.7092 73.3823 9.70707 74.5272 8.66595C75.3077 7.96319 76.0753 7.24742 76.6477 6.34945C77.051 5.71176 77.3372 5.03503 77.2591 4.25419C77.142 3.12197 76.5306 2.39319 75.4768 2.02879C74.1108 1.54727 72.6148 2.01577 71.9253 3.09594C71.6391 3.53842 71.509 4.01994 71.4569 4.5405C71.4439 4.65763 71.4439 4.77475 71.4309 4.9179C70.7935 4.85283 70.156 4.78776 69.5055 4.72269C69.6616 3.14799 70.182 1.78152 71.613 1.00068C73.3823 0.0376422 75.2557 -0.00140151 77.051 0.909581C79.1325 1.9507 79.809 4.5405 78.6641 6.70083C78.0657 7.82004 77.1811 8.69198 76.2444 9.51186C75.1126 10.5139 73.9547 11.49 72.8359 12.5051C72.4456 12.8565 72.1204 13.2989 71.7692 13.6894C71.7952 13.7024 71.8212 13.7284 71.8472 13.7675Z" fill="var(--fill-0, #FF5B26)"/>
<path id="Vector_5" d="M39.7539 0.129089C40.4174 0.129089 41.0679 0.129089 41.7443 0.129089C41.7443 4.71003 41.7443 9.26495 41.7443 13.8589C43.9429 13.8589 46.1285 13.8589 48.3141 13.8589C48.3141 14.4315 48.3141 14.9781 48.3141 15.5377C45.452 15.5377 42.616 15.5377 39.7539 15.5377C39.7539 10.3972 39.7539 5.26964 39.7539 0.129089Z" fill="var(--fill-0, #FF5B26)"/>
<path id="Vector_6" d="M28.9561 0.129089C29.6065 0.129089 30.257 0.129089 30.9205 0.129089C30.9205 4.69702 30.9205 9.26495 30.9205 13.8589C33.1321 13.8589 35.3177 13.8589 37.5162 13.8589C37.5162 14.4315 37.5162 14.9781 37.5162 15.5377C34.6672 15.5377 31.8181 15.5377 28.9561 15.5377C28.9561 10.4102 28.9561 5.26964 28.9561 0.129089Z" fill="var(--fill-0, #FF5B26)"/>
<path id="Vector_7" d="M50.6683 8.0934C50.9806 8.0934 51.2798 8.0934 51.592 8.0934C51.8262 8.0934 51.9563 8.21052 51.9563 8.44478C51.9563 9.08246 51.9563 9.72015 51.9563 10.3448C51.9563 10.5661 51.8262 10.6832 51.618 10.6962C50.9806 10.7092 50.3431 10.6962 49.7056 10.6962C49.4715 10.6962 49.3544 10.5531 49.3544 10.3318C49.3544 9.70714 49.3544 9.08246 49.3544 8.45779C49.3544 8.22353 49.4715 8.10641 49.7187 8.10641C50.0309 8.0934 50.3561 8.0934 50.6683 8.0934Z" fill="var(--fill-0, #FF5B26)"/>
</g>
</svg>
