<svg width="128" height="128" viewBox="0 0 128 128" fill="none" xmlns="http://www.w3.org/2000/svg">
<path d="M106.078 0H21.9222C9.81489 0 0 9.81489 0 21.9222V106.078C0 118.185 9.81489 128 21.9222 128H106.078C118.185 128 128 118.185 128 106.078V21.9222C128 9.81489 118.185 0 106.078 0Z" fill="#1C64F5"/>
<path d="M94.9741 32.7626C94.8863 32.3237 94.601 31.9945 94.228 31.7312C93.811 31.5118 93.1527 31.5556 91.9238 31.5556H84.6823C82.9487 31.5776 82.1368 31.5556 81.3468 31.9287C80.7323 32.2359 80.1398 32.7626 79.701 33.3112C79.284 33.9914 79.1304 34.8473 78.8013 36.6247L76.7604 47.7723H92.4285L94.7546 35.0886C94.9741 33.8598 95.1057 33.2234 94.9741 32.7626Z" fill="white"/>
<path d="M63.5062 32.7845C63.3745 32.3456 63.0893 32.0384 62.7601 31.7531C62.2993 31.5556 61.6848 31.5776 60.4121 31.5776H53.1705C51.4808 31.5776 50.625 31.5776 49.8789 31.9506C49.2206 32.2579 48.672 32.7845 48.277 33.3331C47.7723 34.0353 47.6187 34.8911 47.2895 36.6686L45.2487 47.8162H60.9607L63.2868 35.1545C63.5281 33.8817 63.6379 33.2453 63.5062 32.7845Z" fill="white"/>
<path d="M52.0953 96.4444H67.8511L76.7604 47.7943L60.9826 47.8382L52.0953 96.4444Z" fill="white"/>
<path d="M107.307 50.1204C107.021 49.3084 106.473 48.6721 105.793 48.2551C104.893 47.7943 103.686 47.7504 101.184 47.7723L92.4505 47.8382L83.5631 96.4663H99.2751L106.868 54.9261C107.329 52.3806 107.57 51.1078 107.329 50.1204H107.307Z" fill="white"/>
<path d="M32.8942 48.5184C31.6434 49.1548 30.4364 50.1643 29.5806 51.3931C28.6151 52.7098 28.2859 54.4872 27.6495 57.9544L20.6055 96.4663H36.3613L45.2487 47.8382L39.4994 47.7943C36.0541 47.8601 34.3644 47.7943 32.8942 48.5184Z" fill="white"/>
</svg>
