<svg preserveAspectRatio="none" width="100%" height="100%" overflow="visible" style="display: block;" viewBox="0 0 22.9756 26.9021" fill="none" xmlns="http://www.w3.org/2000/svg">
<g id="Model Icon Container">
<path id="Vector" d="M15.8156 12.3227C16.8496 12.3227 17.6879 11.4855 17.6879 10.4528C17.6879 9.42009 16.8496 8.58292 15.8156 8.58292C14.7815 8.58292 13.9433 9.42009 13.9433 10.4528C13.9433 11.4855 14.7815 12.3227 15.8156 12.3227Z" fill="var(--fill-0, #FF5B26)"/>
<path id="Vector_2" d="M6.05101 11.902C6.85246 11.902 7.50216 11.2532 7.50216 10.4528C7.50216 9.65234 6.85246 9.00347 6.05101 9.00347C5.24956 9.00347 4.59986 9.65234 4.59986 10.4528C4.59986 11.2532 5.24956 11.902 6.05101 11.902Z" fill="var(--fill-0, #FF5B26)"/>
<path id="Vector_3" d="M12.6456 13.5816C12.7876 12.708 12.1936 11.8848 11.3188 11.743C10.4441 11.6012 9.61984 12.1945 9.47785 13.0681C9.33586 13.9417 9.92988 14.7649 10.8046 14.9067C11.6794 15.0485 12.5036 14.4552 12.6456 13.5816Z" fill="var(--fill-0, #FF5B26)"/>
<path id="Vector_4" d="M1.16712 14.4895C1.81171 14.4895 2.33425 13.9676 2.33425 13.3239C2.33425 12.6801 1.81171 12.1583 1.16712 12.1583C0.52254 12.1583 0 12.6801 0 13.3239C0 13.9676 0.52254 14.4895 1.16712 14.4895Z" fill="var(--fill-0, #FF5B26)"/>
<path id="Vector_5" d="M15.8156 6.57938C16.8496 6.57938 17.6879 5.7422 17.6879 4.70949C17.6879 3.67678 16.8496 2.8396 15.8156 2.8396C14.7815 2.8396 13.9433 3.67678 13.9433 4.70949C13.9433 5.7422 14.7815 6.57938 15.8156 6.57938Z" fill="var(--fill-0, #FF5B26)"/>
<path id="Vector_6" d="M6.05101 6.15873C6.85246 6.15873 7.50216 5.50986 7.50216 4.70944C7.50216 3.90902 6.85246 3.26015 6.05101 3.26015C5.24956 3.26015 4.59986 3.90902 4.59986 4.70944C4.59986 5.50986 5.24956 6.15873 6.05101 6.15873Z" fill="var(--fill-0, #FF5B26)"/>
<path id="Vector_7" d="M12.6446 7.83901C12.7866 6.96539 12.1926 6.14223 11.3178 6.00042C10.4431 5.85861 9.61887 6.45186 9.47688 7.32548C9.33489 8.19909 9.9289 9.02226 10.8036 9.16407C11.6784 9.30587 12.5026 8.71263 12.6446 7.83901Z" fill="var(--fill-0, #FF5B26)"/>
<path id="Vector_8" d="M12.6456 2.09536C12.7876 1.22174 12.1936 0.398575 11.3188 0.256766C10.4441 0.114958 9.61984 0.708207 9.47785 1.58183C9.33586 2.45544 9.92988 3.27861 10.8046 3.42041C11.6794 3.56222 12.5036 2.96898 12.6456 2.09536Z" fill="var(--fill-0, #FF5B26)"/>
<path id="Vector_9" d="M1.16712 8.74583C1.81171 8.74583 2.33425 8.22396 2.33425 7.5802C2.33425 6.93645 1.81171 6.41458 1.16712 6.41458C0.52254 6.41458 0 6.93645 0 7.5802C0 8.22396 0.52254 8.74583 1.16712 8.74583Z" fill="var(--fill-0, #FF5B26)"/>
<path id="Vector_10" d="M20.7867 15.5099C21.9956 15.5099 22.9757 14.5311 22.9757 13.3237C22.9757 12.1164 21.9956 11.1376 20.7867 11.1376C19.5777 11.1376 18.5977 12.1164 18.5977 13.3237C18.5977 14.5311 19.5777 15.5099 20.7867 15.5099Z" fill="var(--fill-0, #FF5B26)"/>
<path id="Vector_11" d="M20.7867 9.76673C21.9956 9.76673 22.9757 8.78796 22.9757 7.58058C22.9757 6.3732 21.9956 5.39442 20.7867 5.39442C19.5777 5.39442 18.5977 6.3732 18.5977 7.58058C18.5977 8.78796 19.5777 9.76673 20.7867 9.76673Z" fill="var(--fill-0, #FF5B26)"/>
<path id="Vector_12" d="M17.1388 17.5168C17.87 16.7866 17.87 15.6026 17.1388 14.8724C16.4076 14.1421 15.2221 14.1421 14.491 14.8724C13.7598 15.6026 13.7598 16.7866 14.491 17.5168C15.2221 18.247 16.4076 18.247 17.1388 17.5168Z" fill="var(--fill-0, #FF5B26)"/>
<path id="Vector_13" d="M6.05101 17.6437C6.85246 17.6437 7.50216 16.9948 7.50216 16.1944C7.50216 15.394 6.85246 14.7451 6.05101 14.7451C5.24956 14.7451 4.59986 15.394 4.59986 16.1944C4.59986 16.9948 5.24956 17.6437 6.05101 17.6437Z" fill="var(--fill-0, #FF5B26)"/>
<path id="Vector_14" d="M17.1388 23.2606C17.87 22.5304 17.87 21.3465 17.1388 20.6162C16.4076 19.886 15.2221 19.886 14.491 20.6162C13.7598 21.3465 13.7598 22.5304 14.491 23.2606C15.2221 23.9909 16.4076 23.9909 17.1388 23.2606Z" fill="var(--fill-0, #FF5B26)"/>
<path id="Vector_15" d="M6.05101 23.3869C6.85246 23.3869 7.50216 22.738 7.50216 21.9376C7.50216 21.1371 6.85246 20.4883 6.05101 20.4883C5.24956 20.4883 4.59986 21.1371 4.59986 21.9376C4.59986 22.738 5.24956 23.3869 6.05101 23.3869Z" fill="var(--fill-0, #FF5B26)"/>
<path id="Vector_16" d="M12.5441 19.68C12.8832 18.8623 12.4944 17.9249 11.6757 17.5862C10.8569 17.2475 9.91831 17.6358 9.57918 18.4535C9.24005 19.2712 9.62884 20.2086 10.4476 20.5473C11.2663 20.886 12.2049 20.4977 12.5441 19.68Z" fill="var(--fill-0, #FF5B26)"/>
<path id="Vector_17" d="M12.5419 25.4215C12.881 24.6038 12.4922 23.6664 11.6735 23.3277C10.8548 22.989 9.91613 23.3773 9.57699 24.195C9.23786 25.0127 9.62666 25.9501 10.4454 26.2888C11.2641 26.6275 12.2028 26.2392 12.5419 25.4215Z" fill="var(--fill-0, #FF5B26)"/>
<path id="Vector_18" d="M1.16712 20.2326C1.81171 20.2326 2.33425 19.7108 2.33425 19.067C2.33425 18.4233 1.81171 17.9014 1.16712 17.9014C0.52254 17.9014 0 18.4233 0 19.067C0 19.7108 0.52254 20.2326 1.16712 20.2326Z" fill="var(--fill-0, #FF5B26)"/>
<path id="Vector_19" d="M20.7867 21.253C21.9956 21.253 22.9757 20.2742 22.9757 19.0668C22.9757 17.8595 21.9956 16.8807 20.7867 16.8807C19.5777 16.8807 18.5977 17.8595 18.5977 19.0668C18.5977 20.2742 19.5777 21.253 20.7867 21.253Z" fill="var(--fill-0, #FF5B26)"/>
</g>
</svg>
