<svg preserveAspectRatio="none" width="100%" height="100%" overflow="visible" style="display: block;" viewBox="0 0 62.9398 20.691" fill="none" xmlns="http://www.w3.org/2000/svg">
<g id="Group">
<path id="Vector" d="M21.739 5.71722C18.8775 5.71722 16.5449 7.89034 16.5449 10.8884C16.5449 13.8864 18.8775 16.0595 21.739 16.0595C24.6005 16.0595 26.9331 13.8652 26.9331 10.8884C26.9331 7.91153 24.6005 5.71722 21.739 5.71722ZM21.739 14.0201C20.1704 14.0201 18.8188 12.7289 18.8188 10.8867C18.8188 9.04455 20.1704 7.7534 21.739 7.7534C23.3077 7.7534 24.6593 9.02662 24.6593 10.8867C24.6593 12.7468 23.3077 14.0201 21.739 14.0201Z" fill="var(--fill-0, #FF5B26)"/>
<path id="Vector_2" d="M32.9431 5.71722C30.0816 5.71722 27.749 7.89197 27.749 10.8884C27.749 13.8847 30.0816 16.0595 32.9431 16.0595C35.8046 16.0595 38.1373 13.8652 38.1373 10.8884C38.1373 7.91153 35.8046 5.71722 32.9431 5.71722ZM32.9431 14.0201C31.3745 14.0201 30.0229 12.7289 30.0229 10.8867C30.0229 9.04455 31.3745 7.7534 32.9431 7.7534C34.5118 7.7534 35.8634 9.02662 35.8634 10.8867C35.8634 12.7468 34.5118 14.0201 32.9431 14.0201Z" fill="var(--fill-0, #FF5B26)"/>
<path id="Vector_3" d="M46.7158 6.87304H46.6358C46.1249 6.26496 45.1438 5.71719 43.9098 5.71719C41.3209 5.71719 38.9491 7.98812 38.9491 10.9063C38.9491 13.8244 41.3209 16.0562 43.9098 16.0562C45.1471 16.0562 46.1265 15.5084 46.6358 14.8808H46.7158V15.6242C46.7158 17.6033 45.658 18.6548 43.9522 18.6548C42.5615 18.6548 41.698 17.662 41.3454 16.8208L39.3653 17.6441C39.935 19.0151 41.445 20.691 43.9539 20.691C46.6195 20.691 48.8737 19.1308 48.8737 15.3128V6.03183H46.7141V6.87304H46.7158ZM44.1138 14.02C42.5451 14.02 41.2311 12.7077 41.2311 10.9063C41.2311 9.10484 42.5451 7.755 44.1138 7.755C45.6825 7.755 46.8774 9.08691 46.8774 10.9063C46.8774 12.7256 45.6613 14.02 44.1138 14.02Z" fill="var(--fill-0, #FF5B26)"/>
<path id="Vector_4" d="M52.4335 0.588379H50.2168V15.7415H52.4335V0.588379Z" fill="var(--fill-0, #FF5B26)"/>
<path id="Vector_5" d="M58.5276 14.02C57.3719 14.02 56.5476 13.4902 56.0187 12.4534L62.9398 9.59065L62.7048 9.00376C62.2755 7.84955 60.9614 5.71393 58.2746 5.71393C55.5878 5.71393 53.3906 7.81042 53.3906 10.8851C53.3906 13.7853 55.5878 16.0562 58.5276 16.0562C60.8994 16.0562 62.2722 14.6069 62.8419 13.7641L61.0773 12.5887C60.4897 13.4511 59.6866 14.02 58.5276 14.02ZM58.3513 7.71424C59.2524 7.71424 60.0179 8.16418 60.2726 8.80976L55.6465 10.7286C55.5877 8.73314 57.1972 7.71424 58.3513 7.71424Z" fill="var(--fill-0, #FF5B26)"/>
<path id="Vector_6" d="M8.15192 7.34914V9.54344H13.4015C13.2399 10.7515 12.8318 11.6367 12.2115 12.2578C11.446 13.0224 10.2511 13.8636 8.15192 13.8636C4.91661 13.8636 2.38648 11.2601 2.38648 8.02895C2.38648 4.79781 4.91661 2.19431 8.15192 2.19431C9.89852 2.19431 11.1717 2.87901 12.1136 3.76097L13.6643 2.21224C12.3519 0.960213 10.607 0 8.15518 0C3.725 0 0 3.60447 0 8.02895C0 12.4534 3.725 16.0579 8.15518 16.0579C10.5449 16.0579 12.3503 15.2754 13.7623 13.8065C15.2134 12.3572 15.6639 10.3211 15.6639 8.67616C15.6639 8.18708 15.6264 7.73387 15.5546 7.3524H8.15192V7.34914Z" fill="var(--fill-0, #FF5B26)"/>
</g>
</svg>
