<svg preserveAspectRatio="none" width="100%" height="100%" overflow="visible" style="display: block;" viewBox="0 0 79.218 15.6915" fill="none" xmlns="http://www.w3.org/2000/svg">
<g id="Model Icon Container">
<path id="Vector" d="M0.00975705 0.311028C0.59518 0.245958 1.15458 0.15486 1.71399 0.115818C3.14502 -0.00130848 4.57606 -0.0663834 6.0201 0.102799C7.19095 0.245953 8.32276 0.506239 9.35051 1.09187C11.0417 2.06792 12.0695 3.53851 12.4728 5.43856C12.85 7.22148 12.759 8.99139 12.1735 10.7092C11.3149 13.221 9.50662 14.6785 6.96979 15.3162C5.49972 15.6806 3.99063 15.7327 2.49455 15.6676C1.76603 15.6416 1.0375 15.5765 0.295964 15.5375C0.113832 15.5244 0.00975705 15.4854 0.00975705 15.2511C0.0227665 10.3318 0.00975705 5.42555 0.00975705 0.506239C-0.00325235 0.467197 -0.00325235 0.415141 0.00975705 0.311028ZM2.00019 1.80764C2.00019 1.93778 2.00019 2.05491 2.00019 2.15902C2.00019 4.55361 2.00019 6.9612 2.00019 9.35578C2.00019 10.8003 2.00019 12.2449 2.00019 13.6895C2.00019 13.8326 1.98719 13.9628 2.20835 13.9888C3.48327 14.1059 4.74518 14.1449 6.00709 13.8586C8.10161 13.3901 9.55866 12.1798 10.2091 10.1106C10.6645 8.65303 10.7165 7.15641 10.3783 5.65979C10.04 4.16318 9.19439 3.01794 7.8154 2.31519C7.00881 1.89874 6.13719 1.70353 5.23954 1.63846C4.14675 1.56038 3.07998 1.59942 2.00019 1.80764Z" fill="var(--fill-0, #FF5B26)"/>
<path id="Vector_2" d="M26.6659 15.5507C25.9764 15.5507 25.339 15.5377 24.6885 15.5507C24.4934 15.5507 24.4804 15.4206 24.4413 15.2904C23.96 13.8719 23.4656 12.4534 22.9973 11.0218C22.9062 10.7485 22.7891 10.6835 22.5159 10.6835C20.9158 10.6965 19.3156 10.6965 17.7155 10.6835C17.4943 10.6835 17.4032 10.7485 17.3252 10.9568C16.8698 12.3753 16.4015 13.7938 15.9332 15.1993C15.8941 15.3034 15.8551 15.4206 15.8161 15.5117C15.1266 15.5117 14.4501 15.5117 13.7476 15.5117C13.9297 14.9781 14.0988 14.4575 14.281 13.937C15.8161 9.43411 17.3512 4.91824 18.8733 0.415385C18.9644 0.155105 19.0684 0.0770203 19.3416 0.0900343C19.9531 0.116062 20.5515 0.103048 21.163 0.0900343C21.3451 0.0900343 21.4231 0.155103 21.4882 0.324285C22.7501 4.02027 24.012 7.71626 25.2739 11.4122C25.7162 12.7006 26.1586 13.976 26.5879 15.2644C26.6139 15.3555 26.6399 15.4336 26.6659 15.5507ZM17.8846 9.10876C19.3937 9.10876 20.9158 9.10876 22.4249 9.10876C21.6443 6.71418 20.8637 4.33261 20.1352 2.10721C19.4197 4.34563 18.6521 6.72719 17.8846 9.10876Z" fill="var(--fill-0, #FF5B26)"/>
<path id="Vector_3" d="M55.4168 0.129106C58.1878 0.129106 60.9588 0.129106 63.7298 0.129106C63.7298 0.68871 63.7298 1.22228 63.7298 1.7949C63.6257 1.7949 63.5087 1.80792 63.4046 1.80792C61.5182 1.80792 59.6188 1.80792 57.7325 1.80792C57.4723 1.80792 57.3942 1.87299 57.3942 2.14628C57.4073 3.53878 57.3942 4.9443 57.4072 6.3368C57.4072 6.4279 57.4203 6.519 57.4203 6.64914C59.4107 6.64914 61.3881 6.64914 63.3786 6.64914C63.3786 7.20874 63.3786 7.74232 63.3786 8.31494C61.4141 8.31494 59.4237 8.31494 57.4203 8.31494C57.4203 10.1759 57.4203 12.0109 57.4203 13.8849C59.6319 13.8849 61.8435 13.8849 64.0811 13.8849C64.0811 14.4576 64.0811 14.9911 64.0811 15.5377C61.193 15.5377 58.3179 15.5377 55.4168 15.5377C55.4168 10.4102 55.4168 5.26965 55.4168 0.129106Z" fill="var(--fill-0, #FF5B26)"/>
<path id="Vector_4" d="M71.8477 13.7674C74.2934 13.7674 76.7392 13.7674 79.211 13.7674C79.211 14.3661 79.211 14.9517 79.211 15.5504C75.8676 15.5504 72.5372 15.5504 69.1157 15.5504C69.1807 15.186 69.2067 14.8216 69.3108 14.4832C69.6361 13.4161 70.2605 12.5181 71.0541 11.7633C72.1859 10.7091 73.3828 9.70705 74.5276 8.66593C75.3082 7.96317 76.0757 7.2474 76.6481 6.34943C77.0514 5.71174 77.3376 5.03501 77.2596 4.25417C77.1425 3.12195 76.531 2.39316 75.4773 2.02877C74.1113 1.54725 72.6152 2.01575 71.9257 3.09591C71.6395 3.53839 71.5094 4.01992 71.4574 4.54048C71.4444 4.6576 71.4444 4.77473 71.4314 4.91788C70.7939 4.85281 70.1564 4.78774 69.506 4.72267C69.6621 3.14797 70.1824 1.7815 71.6135 1.00066C73.3828 0.037618 75.2561 -0.00142574 77.0514 0.909557C79.1329 1.95068 79.8094 4.54047 78.6646 6.70081C78.0662 7.82001 77.1815 8.69195 76.2448 9.51184C75.113 10.5139 73.9552 11.49 72.8364 12.5051C72.4461 12.8564 72.1209 13.2989 71.7696 13.6893C71.7956 13.7024 71.8216 13.7284 71.8477 13.7674Z" fill="var(--fill-0, #FF5B26)"/>
<path id="Vector_5" d="M39.7534 0.129106C40.4169 0.129106 41.0674 0.129106 41.7439 0.129106C41.7439 4.71005 41.7439 9.26496 41.7439 13.8589C43.9425 13.8589 46.128 13.8589 48.3136 13.8589C48.3136 14.4315 48.3136 14.9781 48.3136 15.5377C45.4515 15.5377 42.6155 15.5377 39.7534 15.5377C39.7534 10.3972 39.7534 5.26965 39.7534 0.129106Z" fill="var(--fill-0, #FF5B26)"/>
<path id="Vector_6" d="M28.9556 0.129106C29.6061 0.129106 30.2566 0.129106 30.9201 0.129106C30.9201 4.69703 30.9201 9.26496 30.9201 13.8589C33.1317 13.8589 35.3172 13.8589 37.5158 13.8589C37.5158 14.4315 37.5158 14.9781 37.5158 15.5377C34.6668 15.5377 31.8177 15.5377 28.9556 15.5377C28.9556 10.4102 28.9556 5.26965 28.9556 0.129106Z" fill="var(--fill-0, #FF5B26)"/>
<path id="Vector_7" d="M50.6683 8.0934C50.9806 8.0934 51.2798 8.0934 51.592 8.0934C51.8262 8.0934 51.9563 8.21052 51.9563 8.44478C51.9563 9.08246 51.9563 9.72015 51.9563 10.3448C51.9563 10.5661 51.8262 10.6832 51.618 10.6962C50.9806 10.7092 50.3431 10.6962 49.7056 10.6962C49.4715 10.6962 49.3544 10.5531 49.3544 10.3318C49.3544 9.70714 49.3544 9.08246 49.3544 8.45779C49.3544 8.22353 49.4715 8.10641 49.7187 8.10641C50.0309 8.0934 50.3561 8.0934 50.6683 8.0934Z" fill="var(--fill-0, #FF5B26)"/>
</g>
</svg>
