<svg width="186" height="34" viewBox="0 0 186 34" fill="none" xmlns="http://www.w3.org/2000/svg">
<g id="Logo-Lockup-White">
<!-- MonoDesk Text -->
<path d="M53.44 23.17L47.3883 6.19149H41.989V28.1033H46.002V12.9829L51.5237 28.0742H55.3504L60.8779 12.9829V28.1033H64.891V6.19149H59.4858L53.44 23.17Z" fill="white"/>
<path d="M79.0853 12.3189C77.8738 11.6083 76.4526 11.253 74.8276 11.253C73.2025 11.253 71.7755 11.6083 70.5524 12.3189C69.3292 13.0295 68.3798 14.0255 67.71 15.3127C67.0402 16.5999 66.7082 18.1143 66.7082 19.8675C66.7082 21.6206 67.0402 23.1059 67.71 24.4048C68.3798 25.7036 69.3234 26.7054 70.5524 27.416C71.7755 28.1266 73.2025 28.4819 74.8276 28.4819C76.4526 28.4819 77.8738 28.1266 79.0853 27.416C80.2968 26.7054 81.2404 25.7036 81.9102 24.4048C82.58 23.1059 82.912 21.5973 82.912 19.8675C82.912 18.1376 82.58 16.5999 81.9102 15.3127C81.2404 14.0255 80.2968 13.0295 79.0853 12.3189ZM77.7748 23.8456C77.0875 24.7892 76.1031 25.2668 74.8276 25.2668C73.552 25.2668 72.5618 24.795 71.8629 23.8456C71.164 22.902 70.8145 21.574 70.8145 19.8616C70.8145 18.1492 71.164 16.8504 71.8629 15.8951C72.5618 14.9399 73.552 14.4623 74.8276 14.4623C76.1031 14.4623 77.0875 14.9399 77.7748 15.8951C78.4621 16.8504 78.8057 18.1725 78.8057 19.8616C78.8057 21.5507 78.4621 22.8962 77.7748 23.8456Z" fill="white"/>
<path d="M96.1104 12.0568C95.2774 11.5209 94.2523 11.253 93.0408 11.253C92.1555 11.253 91.3459 11.4161 90.6004 11.7481C89.8607 12.0801 89.2316 12.5926 88.7191 13.2916C88.4744 13.6236 88.2706 14.0138 88.1016 14.4565L88.0085 11.6258H84.4264V28.1091H88.3754V18.7899C88.3754 17.392 88.6899 16.3203 89.319 15.5806C89.948 14.8409 90.7867 14.4681 91.8352 14.4681C92.5341 14.4681 93.0933 14.637 93.5184 14.9749C93.9378 15.3127 94.2465 15.8019 94.4271 16.4426C94.6135 17.0833 94.7066 17.8638 94.7066 18.7899V28.1091H98.6557V17.5202C98.6557 16.2854 98.4402 15.202 98.0092 14.2643C97.5781 13.3265 96.9433 12.5926 96.1104 12.0568Z" fill="white"/>
<path d="M112.454 12.3189C111.242 11.6083 109.821 11.253 108.196 11.253C106.571 11.253 105.144 11.6083 103.921 12.3189C102.698 13.0295 101.748 14.0255 101.079 15.3127C100.409 16.5999 100.077 18.1143 100.077 19.8675C100.077 21.6206 100.409 23.1059 101.079 24.4048C101.748 25.7036 102.692 26.7054 103.921 27.416C105.144 28.1266 106.571 28.4819 108.196 28.4819C109.821 28.4819 111.242 28.1266 112.454 27.416C113.665 26.7054 114.609 25.7036 115.279 24.4048C115.949 23.1059 116.281 21.5973 116.281 19.8675C116.281 18.1376 115.949 16.5999 115.279 15.3127C114.609 14.0255 113.665 13.0295 112.454 12.3189ZM111.138 23.8456C110.45 24.7892 109.466 25.2668 108.19 25.2668C106.915 25.2668 105.925 24.795 105.226 23.8456C104.527 22.902 104.177 21.574 104.177 19.8616C104.177 18.1492 104.527 16.8504 105.226 15.8951C105.925 14.9399 106.915 14.4623 108.19 14.4623C109.466 14.4623 110.45 14.9399 111.138 15.8951C111.825 16.8504 112.174 18.1725 112.174 19.8616C112.174 21.5507 111.831 22.8962 111.138 23.8456Z" fill="white"/>
<path d="M125.384 6.19149H118.098V28.1033H125.565C129.001 28.1033 131.646 27.1597 133.498 25.261C135.35 23.368 136.276 20.6712 136.276 17.1765C136.276 13.6818 135.333 10.9501 133.451 9.0455C131.57 7.14089 128.879 6.19149 125.379 6.19149H125.384ZM130.475 22.7681C129.363 24.0029 127.668 24.6203 125.384 24.6203H122.111V9.68038H125.384C127.668 9.68038 129.363 10.2978 130.475 11.5326C131.587 12.7674 132.141 14.6487 132.141 17.1824C132.141 19.716 131.587 21.5333 130.475 22.7681Z" fill="white"/>
<path d="M149.655 12.3014C148.473 11.6025 147.098 11.253 145.537 11.253C143.976 11.253 142.526 11.6141 141.326 12.3305C140.12 13.0528 139.188 14.0546 138.536 15.3418C137.878 16.629 137.546 18.1376 137.546 19.8616C137.546 21.5857 137.872 23.1001 138.536 24.3989C139.194 25.6978 140.132 26.6996 141.344 27.4102C142.555 28.1208 143.988 28.4761 145.636 28.4761C147.529 28.4761 149.137 28.0159 150.465 27.0899C151.793 26.1638 152.684 24.8998 153.132 23.2923L149.09 23.0476C148.863 23.7699 148.455 24.329 147.873 24.7309C147.285 25.1328 146.551 25.3308 145.665 25.3308C144.495 25.3308 143.551 24.9639 142.84 24.2358C142.13 23.5078 141.734 22.4186 141.652 20.9799H153.348V20.083C153.348 18.2308 153.028 16.6465 152.393 15.3302C151.752 14.0138 150.843 13.0062 149.661 12.3072L149.655 12.3014ZM141.646 18.324C141.81 17.0484 142.235 16.0699 142.928 15.3942C143.615 14.7128 144.489 14.3749 145.537 14.3749C146.586 14.3749 147.453 14.7011 148.129 15.3476C148.811 15.9942 149.189 16.9901 149.271 18.324H141.646Z" fill="white"/>
<path d="M165.888 19.6053C164.892 19.186 163.529 18.8365 161.799 18.5744C160.978 18.4288 160.32 18.2715 159.825 18.0968C159.33 17.9221 158.974 17.6891 158.759 17.4037C158.543 17.1183 158.433 16.7572 158.433 16.3261C158.433 15.7088 158.671 15.2137 159.143 14.8467C159.615 14.474 160.314 14.2934 161.24 14.2934C161.857 14.2934 162.393 14.4041 162.848 14.6196C163.302 14.8351 163.657 15.1496 163.925 15.5631C164.193 15.9767 164.38 16.4601 164.479 17.0134L168.462 16.8271C168.317 15.7553 167.962 14.8059 167.397 13.973C166.832 13.1401 166.045 12.482 165.038 11.9985C164.03 11.5151 162.784 11.2705 161.304 11.2705C159.021 11.2705 157.285 11.7481 156.103 12.7033C154.92 13.6585 154.326 14.9108 154.326 16.4543C154.326 17.3979 154.524 18.1958 154.926 18.8307C155.328 19.4714 156.01 20.0014 156.977 20.4208C157.943 20.8401 159.271 21.1954 160.961 21.4867C161.968 21.6731 162.731 21.8594 163.244 22.04C163.756 22.2264 164.106 22.4419 164.292 22.6865C164.479 22.9311 164.572 23.2398 164.572 23.6126C164.572 24.2475 164.31 24.7193 163.785 25.0163C163.261 25.3134 162.533 25.4648 161.607 25.4648C160.477 25.4648 159.621 25.226 159.044 24.7542C158.468 24.2824 158.107 23.6126 157.961 22.7506L153.919 22.937C154 24.0087 154.338 24.9639 154.938 25.8085C155.532 26.653 156.382 27.3112 157.483 27.783C158.584 28.2548 159.947 28.4936 161.572 28.4936C162.993 28.4936 164.234 28.3014 165.288 27.9228C166.342 27.5442 167.169 26.9792 167.758 26.2395C168.346 25.4998 168.637 24.6028 168.637 23.5544C168.637 22.6516 168.428 21.8711 168.002 21.2246C167.583 20.578 166.872 20.0422 165.871 19.6228L165.888 19.6053Z" fill="white"/>
<path d="M185.785 11.6258H180.904L174.147 19.0637V6.19149H170.198V28.1033H174.147V23.566L176.739 20.8227L181.556 28.1033H186L179.331 18.4754L185.785 11.6258Z" fill="white"/>
<!-- Icon Mark -->
<path d="M28.1553 0C31.3687 0 33.9744 2.60494 33.9746 5.81836V28.1553C33.9746 31.3689 31.3688 33.9746 28.1553 33.9746H5.81836C2.60494 33.9744 0 31.3687 0 28.1553V5.81836C0.000179862 2.60505 2.60505 0.00018368 5.81836 0H28.1553ZM10.4844 12.6797C9.57026 12.6972 9.12159 12.6801 8.73145 12.8721C8.39956 13.0409 8.0787 13.3088 7.85156 13.6348C7.59528 13.9842 7.50778 14.4567 7.33887 15.377L5.46973 25.5986H9.65137L12.0098 12.6914L10.4844 12.6797ZM16.1865 12.6973L13.8271 25.5986H18.0098L20.3682 12.6856L16.1865 12.6973ZM24.5391 12.6914L22.1797 25.5986H26.3506L28.3652 14.5732C28.4875 13.8979 28.5512 13.5599 28.4873 13.2979H28.4814C28.4058 13.0824 28.2605 12.9134 28.0801 12.8027C27.8413 12.6804 27.5204 12.668 26.8564 12.6738L24.5391 12.6914ZM14.1133 8.38184C13.6649 8.38184 13.4373 8.38151 13.2393 8.48047C13.0646 8.562 12.9193 8.70209 12.8145 8.84766C12.6805 9.034 12.6391 9.26087 12.5518 9.73243L12.0098 12.6914H16.1807L16.7979 9.33106C16.8619 8.99355 16.8912 8.82444 16.8564 8.70215C16.8215 8.58566 16.7456 8.50346 16.6582 8.42774C16.5359 8.37537 16.3727 8.38184 16.0352 8.38184H14.1133ZM22.4707 8.37598C22.011 8.3818 21.7955 8.37574 21.5859 8.47461C21.4229 8.55616 21.2649 8.69619 21.1484 8.8418C21.0379 9.02226 20.9974 9.24948 20.9102 9.72071L20.3682 12.6797H24.5273L25.1445 9.31348C25.2027 8.98762 25.2379 8.81858 25.2031 8.69629C25.1798 8.5798 25.1039 8.49177 25.0049 8.42188C24.8943 8.36367 24.7194 8.37597 24.3936 8.37598H22.4707Z" fill="white"/>
</g>
</svg>

