<svg preserveAspectRatio="none" width="100%" height="100%" overflow="visible" style="display: block;" viewBox="0 0 29.6689 29.7949" fill="none" xmlns="http://www.w3.org/2000/svg">
<g id="Mark">
<path id="Subtract" d="M24.5879 0C27.3939 0.000235998 29.6688 2.28461 29.6689 5.10254V24.6914C29.6689 27.5095 27.394 29.7947 24.5879 29.7949H5.08105C2.27485 29.7948 0 27.5095 0 24.6914V5.10254C0.000142669 2.28453 2.27493 0.000117488 5.08105 0H24.5879ZM9.15527 11.125C8.35705 11.1403 7.96571 11.1254 7.625 11.2939C7.33508 11.4421 7.05481 11.6768 6.85645 11.9629C6.63281 12.2693 6.55664 12.6834 6.40918 13.4902L4.77637 22.4541H8.42871L10.4883 11.1348L9.15527 11.125ZM23.4531 11.1201L21.4287 11.1348L19.3691 22.4541H23.0107L24.7705 12.7852C24.8773 12.1926 24.9339 11.8959 24.8779 11.666H24.873C24.8069 11.4771 24.6791 11.3294 24.5215 11.2324C24.3129 11.1252 24.033 11.115 23.4531 11.1201ZM14.1357 11.1348L12.0752 22.4492H15.7275L17.792 11.125L14.1357 11.1348ZM12.3242 7.35059C11.9328 7.35059 11.7344 7.35069 11.5615 7.4375C11.4091 7.50901 11.2819 7.63119 11.1904 7.75879C11.0734 7.92224 11.0372 8.12142 10.9609 8.53516L10.4883 11.1299H14.1299L14.6689 8.18262C14.7249 7.88641 14.7502 7.73812 14.7197 7.63086C14.6892 7.5289 14.6231 7.45695 14.5469 7.39062C14.4401 7.34487 14.2975 7.35059 14.0029 7.35059H12.3242ZM19.6289 7.34473C19.2272 7.34983 19.0385 7.34488 18.8555 7.43164C18.7131 7.50315 18.5754 7.62621 18.4736 7.75391C18.3771 7.91221 18.3419 8.11189 18.2656 8.52539L17.792 11.1201H21.4238L21.9629 8.16699C22.0137 7.88121 22.0442 7.73319 22.0137 7.62598C21.9933 7.52387 21.9273 7.44702 21.8408 7.38574C21.7442 7.33484 21.5912 7.34473 21.3066 7.34473H19.6289Z" fill="var(--fill-0, white)"/>
</g>
</svg>
