<svg width="169" height="31" viewBox="0 0 169 31" fill="none" xmlns="http://www.w3.org/2000/svg">
  <!-- Green M Mark -->
  <g transform="translate(0, 0.6)">
    <path d="M24.5879 0C27.3939 0.000235998 29.6688 2.28461 29.6689 5.10254V24.6914C29.6689 27.5095 27.394 29.7947 24.5879 29.7949H5.08105C2.27485 29.7948 0 27.5095 0 24.6914V5.10254C0.000142669 2.28453 2.27493 0.000117488 5.08105 0H24.5879ZM9.15527 11.125C8.35705 11.1403 7.96571 11.1254 7.625 11.2939C7.33508 11.4421 7.05481 11.6768 6.85645 11.9629C6.63281 12.2693 6.55664 12.6834 6.40918 13.4902L4.77637 22.4541H8.42871L10.4883 11.1348L9.15527 11.125ZM23.4531 11.1201L21.4287 11.1348L19.3691 22.4541H23.0107L24.7705 12.7852C24.8773 12.1926 24.9339 11.8959 24.8779 11.666H24.873C24.8069 11.4771 24.6791 11.3294 24.5215 11.2324C24.3129 11.1252 24.033 11.115 23.4531 11.1201ZM14.1357 11.1348L12.0752 22.4492H15.7275L17.792 11.125L14.1357 11.1348ZM12.3242 7.35059C11.9328 7.35059 11.7344 7.35069 11.5615 7.4375C11.4091 7.50901 11.2819 7.63119 11.1904 7.75879C11.0734 7.92224 11.0372 8.12142 10.9609 8.53516L10.4883 11.1299H14.1299L14.6689 8.18262C14.7249 7.88641 14.7502 7.73812 14.7197 7.63086C14.6892 7.5289 14.6231 7.45695 14.5469 7.39062C14.4401 7.34487 14.2975 7.35059 14.0029 7.35059H12.3242ZM19.6289 7.34473C19.2272 7.34983 19.0385 7.34488 18.8555 7.43164C18.7131 7.50315 18.5754 7.62621 18.4736 7.75391C18.3771 7.91221 18.3419 8.11189 18.2656 8.52539L17.792 11.1201H21.4238L21.9629 8.16699C22.0137 7.88121 22.0442 7.73319 22.0137 7.62598C21.9933 7.52387 21.9273 7.44702 21.8408 7.38574C21.7442 7.33484 21.5912 7.34473 21.3066 7.34473H19.6289Z" fill="#026232"/>
  </g>
  
  <!-- MonoDesk Text -->
  <g transform="translate(38.13, 5.65)">
    <path d="M9.99978 14.8896L4.71506 0H0V19.2211H3.5045V5.95582L8.32637 19.1904H11.6732L16.4951 5.95582V19.2211H19.9996V0H15.2845L9.99978 14.8896Z" fill="white"/>
    <path d="M32.395 5.37352C31.3371 4.75036 30.096 4.43877 28.6769 4.43877C27.2578 4.43877 26.0116 4.75036 24.9435 5.37352C23.8754 5.99669 23.0463 6.87014 22.4614 7.99899C21.8764 9.12784 21.5865 10.4559 21.5865 11.9934C21.5865 13.5309 21.8764 14.8334 22.4614 15.9724C23.0463 17.1115 23.8703 17.9901 24.9435 18.6132C26.0116 19.2364 27.2578 19.548 28.6769 19.548C30.096 19.548 31.3371 19.2364 32.395 18.6132C33.453 17.9901 34.277 17.1115 34.8619 15.9724C35.4468 14.8334 35.7368 13.5104 35.7368 11.9934C35.7368 10.4763 35.4468 9.12784 34.8619 7.99899C34.277 6.87014 33.453 5.99669 32.395 5.37352ZM31.2506 15.4821C30.6504 16.3096 29.7908 16.7284 28.6769 16.7284C27.563 16.7284 26.6983 16.3147 26.0879 15.4821C25.4776 14.6546 25.1724 13.49 25.1724 11.9883C25.1724 10.4865 25.4776 9.34748 26.0879 8.50978C26.6983 7.67208 27.563 7.25323 28.6769 7.25323C29.7908 7.25323 30.6504 7.67208 31.2506 8.50978C31.8508 9.34748 32.1509 10.507 32.1509 11.9883C32.1509 13.4696 31.8508 14.6495 31.2506 15.4821Z" fill="white"/>
    <path d="M47.2624 5.14367C46.5351 4.67374 45.6399 4.43877 44.5819 4.43877C43.8088 4.43877 43.1018 4.5818 42.4508 4.87295C41.8048 5.1641 41.2555 5.61359 40.8079 6.22654C40.5942 6.51769 40.4162 6.85992 40.2687 7.24813L40.1873 4.76568H37.0592V19.2211H40.5078V11.0484C40.5078 9.82251 40.7824 8.88266 41.3318 8.23395C41.8811 7.58525 42.6135 7.25834 43.5291 7.25834C44.1394 7.25834 44.6277 7.40647 44.999 7.70273C45.3652 7.99899 45.6348 8.42805 45.7925 8.98992C45.9553 9.55179 46.0366 10.2363 46.0366 11.0484V19.2211H49.4852V9.93489C49.4852 8.85201 49.297 7.90194 48.9206 7.07956C48.5442 6.25719 47.9898 5.61359 47.2624 5.14367Z" fill="white"/>
    <path d="M61.5348 5.37352C60.4768 4.75036 59.2357 4.43877 57.8166 4.43877C56.3975 4.43877 55.1514 4.75036 54.0833 5.37352C53.0151 5.99669 52.186 6.87014 51.6011 7.99899C51.0162 9.12784 50.7263 10.4559 50.7263 11.9934C50.7263 13.5309 51.0162 14.8334 51.6011 15.9724C52.186 17.1115 53.01 17.9901 54.0833 18.6132C55.1514 19.2364 56.3975 19.548 57.8166 19.548C59.2357 19.548 60.4768 19.2364 61.5348 18.6132C62.5927 17.9901 63.4167 17.1115 64.0016 15.9724C64.5866 14.8334 64.8765 13.5104 64.8765 11.9934C64.8765 10.4763 64.5866 9.12784 64.0016 7.99899C63.4167 6.87014 62.5927 5.99669 61.5348 5.37352ZM60.3853 15.4821C59.7851 16.3096 58.9255 16.7284 57.8116 16.7284C56.6976 16.7284 55.833 16.3147 55.2226 15.4821C54.6122 14.6546 54.3071 13.49 54.3071 11.9883C54.3071 10.4865 54.6122 9.34748 55.2226 8.50978C55.833 7.67208 56.6976 7.25323 57.8116 7.25323C58.9255 7.25323 59.7851 7.67208 60.3853 8.50978C60.9854 9.34748 61.2906 10.507 61.2906 11.9883C61.2906 13.4696 60.9905 14.6495 60.3853 15.4821Z" fill="white"/>
    <path d="M72.8265 3.12423e-07H66.4635V19.216H72.9842C75.9851 19.216 78.2943 18.3885 79.9118 16.7233C81.5292 15.0632 82.338 12.6983 82.338 9.63352C82.338 6.56877 81.514 4.17316 79.8711 2.50288C78.2282 0.832591 75.8783 3.12423e-07 72.8214 3.12423e-07H72.8265ZM77.272 14.5371C76.3005 15.62 74.8203 16.1614 72.8265 16.1614H69.968V3.05964H72.8265C74.8203 3.05964 76.3005 3.60108 77.272 4.68395C78.2435 5.76683 78.7267 7.41669 78.7267 9.63863C78.7267 11.8606 78.2435 13.4542 77.272 14.5371Z" fill="white"/>
    <path d="M94.0213 5.36331C92.9888 4.75036 91.7884 4.44388 90.4253 4.44388C89.0621 4.44388 87.7956 4.76057 86.7478 5.38885C85.695 6.02223 84.8812 6.90079 84.3115 8.02964C83.7367 9.15849 83.4468 10.4814 83.4468 11.9934C83.4468 13.5053 83.7316 14.8334 84.3115 15.9724C84.8863 17.1115 85.7051 17.9901 86.7631 18.6132C87.8211 19.2364 89.0723 19.548 90.5118 19.548C92.1648 19.548 93.5687 19.1445 94.7283 18.3323C95.888 17.5201 96.6663 16.4117 97.0579 15.0019L93.528 14.7874C93.3296 15.4208 92.9736 15.9111 92.4649 16.2636C91.9512 16.616 91.3103 16.7897 90.5372 16.7897C89.5148 16.7897 88.6908 16.4679 88.0703 15.8294C87.4498 15.1909 87.1039 14.2357 87.0327 12.9741H97.2461V12.1875C97.2461 10.5632 96.9663 9.17381 96.4119 8.01942C95.8524 6.86503 95.059 5.98136 94.0264 5.36841L94.0213 5.36331ZM87.0276 10.6398C87.17 9.52115 87.5413 8.66302 88.1466 8.0705C88.7468 7.47287 89.5097 7.17661 90.4253 7.17661C91.3408 7.17661 92.0987 7.46266 92.6887 8.02964C93.2838 8.59662 93.6144 9.47007 93.6857 10.6398H87.0276Z" fill="white"/>
    <path d="M108.202 11.7635C107.332 11.3957 106.142 11.0893 104.631 10.8594C103.914 10.7317 103.34 10.5938 102.907 10.4406C102.475 10.2873 102.165 10.083 101.976 9.83273C101.788 9.58244 101.692 9.26575 101.692 8.88777C101.692 8.34633 101.9 7.91215 102.312 7.59036C102.724 7.26345 103.334 7.1051 104.143 7.1051C104.682 7.1051 105.15 7.20216 105.547 7.39115C105.944 7.58014 106.254 7.85597 106.488 8.21863C106.722 8.58129 106.885 9.00525 106.971 9.4905L110.45 9.32704C110.323 8.38719 110.013 7.5546 109.519 6.82417C109.026 6.09374 108.339 5.51654 107.459 5.09259C106.58 4.66863 105.491 4.4541 104.199 4.4541C102.205 4.4541 100.69 4.87295 99.657 5.71064C98.6245 6.54834 98.1057 7.64654 98.1057 9.00014C98.1057 9.82762 98.2786 10.5274 98.6296 11.0842C98.9805 11.646 99.5756 12.1109 100.42 12.4786C101.264 12.8464 102.424 13.158 103.899 13.4134C104.779 13.5768 105.445 13.7403 105.893 13.8986C106.341 14.0621 106.646 14.2511 106.808 14.4656C106.971 14.6801 107.053 14.9509 107.053 15.2778C107.053 15.8345 106.824 16.2483 106.366 16.5088C105.908 16.7693 105.272 16.9021 104.464 16.9021C103.477 16.9021 102.729 16.6927 102.226 16.2789C101.722 15.8652 101.407 15.2778 101.28 14.5218L97.7496 14.6852C97.8209 15.6251 98.1159 16.4628 98.6398 17.2034C99.1586 17.9441 99.9012 18.5213 100.862 18.935C101.824 19.3488 103.014 19.5582 104.433 19.5582C105.674 19.5582 106.758 19.3896 107.678 19.0576C108.599 18.7256 109.321 18.2301 109.835 17.5814C110.349 16.9327 110.603 16.1461 110.603 15.2267C110.603 14.435 110.42 13.7505 110.048 13.1835C109.682 12.6165 109.062 12.1466 108.187 11.7788L108.202 11.7635Z" fill="white"/>
    <path d="M125.572 4.76568H121.315L115.409 11.2885V3.12423e-07H111.961V19.2211H115.409V15.242L117.673 12.8311L121.879 19.2211H125.76L119.936 10.7726L125.572 4.76568Z" fill="white"/>
  </g>
</svg>

