<svg preserveAspectRatio="none" width="100%" height="100%" overflow="visible" style="display: block;" viewBox="0 0 114.581 21.6864" fill="none" xmlns="http://www.w3.org/2000/svg">
<g id="Open AI">
<path id="Vector" d="M80.2061 4.51781C78.4432 4.51781 77.1841 5.12054 76.5662 6.2612L76.2342 6.87575V4.81571H73.362V17.3675H76.3829V9.90039C76.3829 8.11625 77.3507 7.09255 79.0407 7.09255C80.7308 7.09255 81.5744 8.08813 81.5744 9.82622V17.3675H84.5952V9.28625C84.5952 6.30277 82.9541 4.51822 80.2066 4.51822L80.2061 4.51781ZM65.5611 4.51781C61.9981 4.51781 59.7838 6.74085 59.7838 10.3222V12.0847C59.7838 15.5263 62.0173 17.6662 65.6112 17.6662C68.0141 17.6662 69.6988 16.7835 70.7591 14.9724L68.8858 13.8962C68.1025 14.9415 66.8524 15.5882 65.6112 15.5882C63.7916 15.5882 62.7044 14.4647 62.7044 12.5815V12.0827H71.14V9.99942C71.14 6.66424 68.9502 4.51822 65.5611 4.51822V4.51781ZM68.3921 10.0516H62.7044V9.75124C62.7044 7.68346 63.7187 6.54443 65.5611 6.54443C67.4035 6.54443 68.3921 7.66798 68.3921 9.55114V10.0516ZM114.581 2.74916V0.348022H104.138V2.74916H107.8V14.9676H104.138V17.3675H114.581V14.9676H110.919V2.74916H114.581ZM35.3879 0C30.7222 0 27.8232 2.90931 27.8232 7.59136V10.1233C27.8232 14.8066 30.721 17.7147 35.3879 17.7147C40.0548 17.7147 42.9526 14.8066 42.9526 10.1233V7.59136C42.9514 2.90931 40.0523 0 35.3879 0ZM39.832 10.2965C39.832 13.4059 38.2128 15.1901 35.3879 15.1901C32.563 15.1901 30.9426 13.4059 30.9426 10.2965V7.41816C30.9426 4.30875 32.5618 2.52461 35.3867 2.52461C38.2116 2.52461 39.8308 4.30875 39.8308 7.41816L39.832 10.2965ZM52.4366 4.52433C50.8521 4.52433 49.4786 5.17963 48.7645 6.28036L48.4386 6.7808V4.81571H45.5677V21.6864H48.5873V15.5768L48.9115 16.0565C49.591 17.0634 50.9181 17.6662 52.4607 17.6662C55.0648 17.6662 57.6917 15.9627 57.6917 12.1593V10.0222C57.6917 7.28368 56.0721 4.51781 52.435 4.51781L52.4363 4.52433H52.4366ZM54.6729 12.0154C54.6729 14.0384 53.4933 15.2956 51.5959 15.2956C49.8264 15.2956 48.5906 13.9679 48.5906 12.0656V10.18C48.5906 8.24829 49.837 6.89979 51.6203 6.89979C53.5051 6.89979 54.6758 8.157 54.6758 10.18L54.6734 12.0154H54.6729ZM92.9416 0.354136L86.8449 17.3675H89.9094L91.076 13.7193H98.083L98.0944 13.7552L99.2484 17.3675H102.316L96.2145 0.348022L92.9412 0.354544L92.9416 0.354136ZM91.83 11.3243L94.5791 2.71044L97.3009 11.3137L91.83 11.3239V11.3243ZM19.9771 8.87425C20.4675 7.39697 20.2976 5.77992 19.5115 4.43712C18.329 2.37831 15.9526 1.31915 13.632 1.81674C11.6091 -0.434015 8.14591 -0.618215 5.89577 1.40514C5.18171 2.0474 4.64891 2.86571 4.35115 3.77897C2.82648 4.09195 1.51077 5.04678 0.740496 6.39935C-0.454635 8.4549 -0.183339 11.048 1.41139 12.8117C0.919326 14.2882 1.08756 15.9057 1.87291 17.2489C3.05663 19.3085 5.43467 20.3677 7.7565 19.8693C8.78952 21.0327 10.2731 21.695 11.8287 21.686C14.2075 21.688 16.3151 20.1517 17.0414 17.8858C18.5656 17.5724 19.8813 16.6176 20.652 15.2654C21.8329 13.2136 21.5604 10.6343 19.9771 8.87466V8.87425ZM11.8287 20.267C10.8792 20.2686 9.95939 19.9357 9.23066 19.3264L9.35897 19.2539L13.6747 16.7615C13.8931 16.6331 14.0279 16.3992 14.0295 16.1457V10.0581L15.854 11.114C15.8723 11.1234 15.8849 11.1409 15.8882 11.1609V16.2052C15.8833 18.4462 14.0686 20.2617 11.8287 20.2666V20.267ZM3.10348 16.5394C2.6273 15.717 2.45621 14.7528 2.62078 13.8163L2.74908 13.8933L7.06892 16.3853C7.28644 16.5133 7.55651 16.5133 7.77403 16.3853L13.0511 13.3419V15.4496C13.0499 15.4717 13.0389 15.492 13.0214 15.5051L8.6502 18.0272C6.70761 19.1467 4.22609 18.4812 3.10387 16.5394H3.10348ZM1.96701 7.13452C2.44644 6.30644 3.20327 5.67518 4.10349 5.35201V10.4819C4.10023 10.7342 4.23424 10.9685 4.4538 11.0932L9.70521 14.124L7.88073 15.1799C7.86078 15.1905 7.83675 15.1905 7.81679 15.1799L3.45419 12.6618C1.51567 11.5378 0.850899 9.05681 1.96701 7.11292V7.13452ZM16.9563 10.6184L11.6877 7.55753L13.5077 6.50612C13.5277 6.49552 13.5517 6.49552 13.5717 6.50612L17.9343 9.02829C19.876 10.1494 20.5416 12.6332 19.421 14.5755C18.9493 15.3934 18.2076 16.021 17.3233 16.3511V11.2212C17.3155 10.9693 17.1758 10.7403 16.9558 10.6184H16.9563ZM18.7722 7.88681L18.6438 7.80979L14.3326 5.29618C14.1134 5.16781 13.8421 5.16781 13.6234 5.29618L8.35081 8.33958V6.23186C8.34877 6.21026 8.35856 6.18866 8.37648 6.17643L12.7391 3.65835C14.6837 2.53765 17.1685 3.20599 18.2887 5.15151C18.762 5.97308 18.9331 6.93443 18.7726 7.86888V7.886L18.7722 7.88681ZM7.35527 11.623L5.5308 10.5716C5.51247 10.5606 5.49985 10.5414 5.49659 10.5202V5.48853C5.49944 3.24308 7.32147 1.42552 9.5655 1.42837C10.5126 1.42959 11.4299 1.76173 12.1582 2.36771L12.0299 2.44026L7.71414 4.93267C7.49581 5.06104 7.36098 5.29496 7.35935 5.54844L7.35527 11.623ZM8.34633 9.48553L10.6963 8.13052L13.0507 9.48553V12.1956L10.7048 13.551L8.35081 12.1956L8.34675 9.48553H8.34633Z" fill="var(--fill-0, #FF5B26)"/>
</g>
</svg>
