<svg preserveAspectRatio="none" width="100%" height="100%" overflow="visible" style="display: block;" viewBox="0 0 13.9631 12.2238" fill="none" xmlns="http://www.w3.org/2000/svg">
<g id="Smile">
<path id="Vector" d="M11.1311 3.0559H12.5643L12.8096 1.73168C12.8305 1.6191 12.7547 1.52793 12.6403 1.52793H11.4142L11.1311 3.0559Z" fill="var(--fill-0, #161616)"/>
<path id="Vector_2" d="M6.79358 3.25965C6.81447 3.14706 6.73867 3.05589 6.62418 3.05589H5.60539C5.49091 3.05589 5.38126 3.14706 5.36037 3.25965L5.11499 4.58386H6.54821L6.79358 3.25965Z" fill="var(--fill-0, #161616)"/>
<path id="Vector_3" d="M9.66004 3.25965C9.68094 3.14706 9.60513 3.05589 9.49065 3.05589H8.47186C8.35737 3.05589 8.24772 3.14706 8.22683 3.25965L7.98146 4.58386H9.41467L9.66004 3.25965Z" fill="var(--fill-0, #161616)"/>
<path id="Vector_4" d="M13.7903 3.05589H12.5643L11.4313 9.16792H12.6573C12.7718 9.16792 12.8815 9.07675 12.9024 8.96417L13.9597 3.25965C13.9806 3.14706 13.9048 3.05589 13.7903 3.05589Z" fill="var(--fill-0, #161616)"/>
<path id="Vector_5" d="M2.53179 3.05594H3.965L4.24819 1.52797H11.4143L11.6598 0.203762C11.6807 0.0911802 11.6049 1.00136e-05 11.4904 1.00136e-05H4.73877C4.62428 1.00136e-05 4.51463 0.0911802 4.49374 0.203762L4.24837 1.52797H3.02236C2.90788 1.52797 2.79823 1.61914 2.77734 1.73173L2.53196 3.05594H1.30596C1.19148 3.05594 1.08183 3.14711 1.06094 3.25969L0.00346575 8.96421C-0.0174281 9.0768 0.0583768 9.16797 0.172861 9.16797H1.39886L2.53179 3.05594Z" fill="var(--fill-0, #161616)"/>
<path id="Vector_6" d="M10.3192 7.43621L10.5269 6.31557C10.5478 6.20299 10.472 6.11182 10.3575 6.11182H9.13149L8.8483 7.63978H10.0743C10.1888 7.63978 10.2984 7.54861 10.3193 7.43603L10.3192 7.43621Z" fill="var(--fill-0, #161616)"/>
<path id="Vector_7" d="M4.4725 9.16791H8.35771C8.4722 9.16791 8.58184 9.07674 8.60274 8.96416L8.84811 7.63995H4.54847L4.83166 6.11199H3.60566C3.49118 6.11199 3.38153 6.20316 3.36063 6.31574L3.1529 7.43637C3.13201 7.54895 3.20781 7.64012 3.3223 7.64012H4.5483L4.30275 8.96433C4.28186 9.07692 4.35767 9.16809 4.47215 9.16809L4.4725 9.16791Z" fill="var(--fill-0, #161616)"/>
<path id="Vector_8" d="M2.83209 9.16791H1.39887L1.1535 10.4921C1.13261 10.6047 1.20841 10.6959 1.3229 10.6959H2.5489L2.83209 9.16791Z" fill="var(--fill-0, #161616)"/>
<path id="Vector_9" d="M9.71492 10.6959H2.54886L2.30348 12.0201C2.28259 12.1327 2.35839 12.2238 2.47288 12.2238H9.22452C9.339 12.2238 9.44865 12.1327 9.46955 12.0201L9.71492 10.6959H10.9409C11.0554 10.6959 11.1651 10.6047 11.1859 10.4921L11.4313 9.16791H9.99811L9.71492 10.6959Z" fill="var(--fill-0, #161616)"/>
</g>
</svg>
