<svg preserveAspectRatio="none" width="100%" height="100%" overflow="visible" style="display: block;" viewBox="0 0 114.581 22.4001" fill="none" xmlns="http://www.w3.org/2000/svg">
<g id="Stabillity">
<path id="Vector" d="M35.9029 0.00109547C36.9152 0.0125867 37.9286 0.00984558 38.942 0.00273199C38.9699 2.47881 38.9469 4.95708 38.9535 7.4337C39.5536 6.5155 40.4757 5.82165 41.5262 5.5081C42.8916 5.08129 44.4373 5.30783 45.6278 6.10073C46.7855 6.84929 47.5939 8.06025 47.9902 9.36969C48.3509 10.573 48.4006 11.8627 48.1918 13.0978C47.9153 14.6715 47.0746 16.173 45.7612 17.1055C44.627 17.9252 43.1468 18.2644 41.7765 17.9498C40.5303 17.6888 39.4563 16.8658 38.7709 15.8048C38.6649 16.4537 38.5643 17.1044 38.4681 17.755C37.6122 17.7632 36.7567 17.7495 35.9008 17.7621C35.8729 13.031 35.8975 8.29773 35.8893 3.56555C35.898 2.37703 35.8707 1.18742 35.9029 0M41.4197 8.13029C40.6774 8.28569 40.0078 8.7426 39.5809 9.36805C39.007 10.1954 38.8201 11.2488 38.9409 12.2381C39.0447 13.0967 39.4202 13.9426 40.075 14.5205C40.7282 15.1115 41.6569 15.3714 42.5221 15.2307C43.3868 15.1186 44.175 14.5883 44.6396 13.8534C45.2446 12.9046 45.3726 11.6997 45.1091 10.6162C44.8921 9.70568 44.3171 8.85861 43.4775 8.41976C42.8539 8.07995 42.1122 8.00443 41.4202 8.13029H41.4197Z" fill="var(--fill-0, #FF5B26)"/>
<path id="Vector_2" d="M57.1633 0.00567627C58.1816 0.00950667 59.1999 0.00895947 60.2187 0.00567627C60.2193 5.92364 60.2187 11.8421 60.2187 17.7601C59.1999 17.7568 58.1816 17.7579 57.1633 17.7601C57.1633 11.8421 57.1628 5.92364 57.1633 0.00567627Z" fill="var(--fill-0, #FF5B26)"/>
<path id="Vector_3" d="M52.1115 0.185248C52.7029 0.0889412 53.3403 0.308916 53.7174 0.781149C54.3061 1.46788 54.2104 2.62466 53.4895 3.18117C52.8483 3.70593 51.829 3.67748 51.2162 3.12043C50.7571 2.72097 50.5647 2.05393 50.7155 1.46733C50.8609 0.805221 51.4425 0.277177 52.111 0.184701L52.1115 0.185248Z" fill="var(--fill-0, #FF5B26)"/>
<path id="Vector_4" d="M64.6877 0.188221C65.2993 0.0809699 65.9629 0.320646 66.3389 0.820787C66.8811 1.49658 66.7904 2.59535 66.1159 3.15131C65.519 3.66951 64.5664 3.68975 63.9334 3.22463C63.547 2.94775 63.3005 2.49303 63.265 2.0197C63.1644 1.15732 63.829 0.305321 64.6883 0.187673L64.6877 0.188221Z" fill="var(--fill-0, #FF5B26)"/>
<path id="Vector_5" d="M112.289 0.259035C112.792 0.0899501 113.377 0.145218 113.822 0.444536C114.312 0.763553 114.608 1.35124 114.579 1.93456C114.571 2.5901 114.128 3.21118 113.516 3.441C112.718 3.75674 111.699 3.42458 111.32 2.63279C110.857 1.75563 111.335 0.550145 112.289 0.259035Z" fill="var(--fill-0, #FF5B26)"/>
<path id="Vector_6" d="M12.3808 2.75918C13.3696 2.75753 14.3578 2.75589 15.3455 2.75972C15.3488 3.70145 15.3455 4.64373 15.3471 5.58656C16.4496 5.58984 17.5531 5.56686 18.6556 5.59805C18.6408 6.44238 18.649 7.28671 18.6507 8.13104C17.5499 8.13158 16.4496 8.13049 15.3487 8.13158C15.3466 9.82681 15.3439 11.522 15.3499 13.2178C15.3537 13.9013 15.6685 14.6197 16.284 14.9606C17.0661 15.4104 18.015 15.348 18.872 15.2019C18.8759 16.0714 18.8622 16.9404 18.8786 17.8104C17.5291 18.1054 16.0544 18.1021 14.7748 17.5325C13.8107 17.1051 13.0619 16.2608 12.7082 15.2714C12.447 14.5628 12.3562 13.8011 12.3671 13.0487C12.3688 11.412 12.366 9.77482 12.3677 8.1387C11.7823 8.12502 11.1969 8.13377 10.6115 8.13323C10.6131 7.28397 10.6137 6.43472 10.6115 5.58601C11.2013 5.58437 11.7916 5.58218 12.3808 5.58656V2.75918Z" fill="var(--fill-0, #FF5B26)"/>
<path id="Vector_7" d="M70.4127 2.75282C71.3977 2.76322 72.3821 2.75666 73.3671 2.75611C73.3671 3.70003 73.3567 4.6445 73.3725 5.58951C74.4739 5.57966 75.5753 5.58568 76.6772 5.58622C76.6772 6.43493 76.6777 7.28419 76.6772 8.13344C75.5731 8.13125 74.4701 8.1318 73.3671 8.13289C73.3622 9.79857 73.3671 11.4648 73.3649 13.1299C73.3611 13.8298 73.6497 14.5745 74.2739 14.9422C75.0604 15.4205 76.0262 15.3395 76.8975 15.2109C76.8778 16.0837 76.8991 16.9576 76.8871 17.8315C75.4665 18.0968 73.9148 18.1144 72.6019 17.4358C71.5617 16.9045 70.8325 15.8736 70.5713 14.7447C70.3379 13.8708 70.4057 12.9619 70.3964 12.0683C70.3947 10.7562 70.3985 9.44453 70.3947 8.13344C69.806 8.1318 69.2174 8.13016 68.6287 8.13399C68.6271 7.28364 68.6282 6.43438 68.6287 5.58513C69.2234 5.58513 69.8186 5.58185 70.4127 5.58677C70.4106 4.64176 70.4106 3.69674 70.4133 2.75282H70.4127Z" fill="var(--fill-0, #FF5B26)"/>
<path id="Vector_8" d="M3.42061 5.41571C4.63622 5.20176 5.90264 5.28001 7.08818 5.62091C7.6058 5.77139 8.10864 5.97823 8.56449 6.26825C8.5716 7.16347 8.56943 8.05924 8.56615 8.95445C7.35546 8.1249 5.8502 7.7342 4.39027 7.85404C3.89889 7.91697 3.33753 8.08222 3.08391 8.54788C2.84396 8.9654 2.98934 9.54269 3.40092 9.7944C4.09235 10.2426 4.92151 10.3854 5.6993 10.6141C6.72797 10.9041 7.81244 11.2593 8.55798 12.0675C9.20569 12.7591 9.39643 13.7687 9.27836 14.6858C9.18435 15.6861 8.61482 16.6207 7.77691 17.1717C6.67117 17.9154 5.2921 18.1003 3.9885 18.0604C2.59799 18.0013 1.18232 17.6402 0.0399531 16.8188C0.0503383 15.8552 0.0350552 14.8905 0.0481733 13.9269C1.27799 15.0065 2.92376 15.6188 4.56407 15.4995C5.08934 15.4514 5.66051 15.3408 6.04257 14.9452C6.35139 14.6437 6.43393 14.1321 6.2224 13.7539C6.02563 13.4234 5.66543 13.2445 5.32491 13.0984C4.0142 12.5649 2.55425 12.3887 1.35395 11.5985C0.734119 11.2045 0.244953 10.5851 0.0842564 9.85897C-0.117434 8.92709 0.0410421 7.90273 0.582161 7.10984C1.22549 6.16154 2.31706 5.61544 3.42061 5.41517V5.41571Z" fill="var(--fill-0, #FF5B26)"/>
<path id="Vector_9" d="M22.2274 6.78662C23.1648 5.86131 24.4629 5.26869 25.7906 5.29988C27.0483 5.28948 28.3092 5.79674 29.1821 6.70728C29.4379 6.95023 29.6216 7.25393 29.8517 7.51823C29.9424 6.87636 30.0572 6.23833 30.1408 5.59537C30.9984 5.57075 31.8555 5.58825 32.7131 5.58661C32.7093 9.6441 32.7131 13.7021 32.7114 17.7596C31.8571 17.7563 31.0034 17.7563 30.1491 17.7596C30.0529 17.1079 29.9441 16.4584 29.8512 15.8061C29.392 16.4578 28.8405 17.0608 28.1338 17.4466C26.9023 18.1454 25.3544 18.2641 24.0366 17.741C22.8013 17.266 21.783 16.3063 21.1517 15.1517C20.3395 13.6802 20.1268 11.9193 20.4231 10.2756C20.6581 8.9694 21.2659 7.71194 22.2268 6.78662M25.9873 8.12178C25.2166 8.2657 24.5138 8.72425 24.0661 9.36776C23.4725 10.2088 23.2796 11.2906 23.4217 12.2997C23.5386 13.1374 23.9174 13.9588 24.5613 14.5196C25.2391 15.1227 26.1994 15.3815 27.0892 15.2228C27.9452 15.092 28.7099 14.5421 29.1482 13.8023C29.7347 12.8288 29.8397 11.6118 29.5637 10.5218C29.3286 9.58609 28.7 8.72425 27.8047 8.32863C27.2406 8.06378 26.5957 8.02712 25.9863 8.12178H25.9873Z" fill="var(--fill-0, #FF5B26)"/>
<path id="Vector_10" d="M98.5701 6.05028C99.6945 5.33072 101.112 5.11621 102.403 5.44782C103.312 5.676 104.152 6.18599 104.767 6.89626C104.942 7.09489 105.081 7.32143 105.254 7.52335C105.355 6.87765 105.461 6.23195 105.554 5.58516C106.412 5.58352 107.27 5.58462 108.128 5.58516C108.136 9.63718 108.115 13.6908 108.139 17.7428C107.282 17.7806 106.422 17.7439 105.565 17.7614C105.451 17.1108 105.358 16.4569 105.254 15.8052C104.941 16.2353 104.618 16.6654 104.197 16.997C102.924 18.0526 101.083 18.3541 99.5359 17.7762C98.2121 17.2958 97.1271 16.2616 96.4865 15.0167C95.7049 13.5239 95.5388 11.757 95.8618 10.1171C96.1887 8.4804 97.1353 6.93401 98.5701 6.05028ZM101.351 8.13074C100.384 8.31897 99.5583 9.01994 99.1582 9.91297C98.8008 10.6594 98.7379 11.5108 98.8325 12.3245C98.9642 13.2585 99.4375 14.1685 100.22 14.7168C101.311 15.5026 102.94 15.449 103.941 14.5363C105.021 13.5863 105.31 11.9934 105.001 10.6364C104.789 9.68643 104.185 8.79723 103.296 8.36713C102.698 8.06617 102.002 8.01583 101.352 8.13074H101.351Z" fill="var(--fill-0, #FF5B26)"/>
<path id="Vector_11" d="M50.8719 5.58843C51.8918 5.58679 52.9123 5.57147 53.9322 5.59664C53.9191 9.65084 53.9301 13.7056 53.9273 17.7598C52.9101 17.7576 51.8918 17.7565 50.8746 17.7598C50.873 13.7028 50.8779 9.64591 50.8724 5.58843H50.8719Z" fill="var(--fill-0, #FF5B26)"/>
<path id="Vector_12" d="M63.4566 5.59912C64.4754 5.56628 65.4964 5.59091 66.5158 5.58708C66.5109 9.64456 66.5153 13.7026 66.5131 17.7612C65.4959 17.7562 64.4782 17.7595 63.461 17.7595C63.4604 13.7059 63.4708 9.65222 63.4561 5.59966L63.4566 5.59912Z" fill="var(--fill-0, #FF5B26)"/>
<path id="Vector_13" d="M77.7939 5.58743C78.8903 5.57703 79.9868 5.5929 81.0838 5.57922C82.0556 8.38033 82.964 11.2039 83.938 14.0044C84.2327 13.3544 84.4092 12.6567 84.6557 11.9864C85.3499 9.92836 86.0544 7.87253 86.7459 5.81233C86.7852 5.72478 86.7983 5.55076 86.9393 5.58414C87.95 5.58469 88.9612 5.58086 89.9729 5.58633C87.7718 11.1924 85.5734 16.799 83.3625 22.4001C82.3376 22.3919 81.3122 22.404 80.2874 22.3936C80.969 20.7169 81.6845 19.0529 82.3524 17.3714C80.8515 13.437 79.3052 9.51851 77.7939 5.58743Z" fill="var(--fill-0, #FF5B26)"/>
<path id="Vector_14" d="M111.34 5.58626C112.361 5.58298 113.382 5.58462 114.403 5.58571C114.396 9.64484 114.42 13.7051 114.392 17.7647C113.377 17.7532 112.362 17.7582 111.348 17.7625C111.328 13.704 111.343 9.64539 111.34 5.58681V5.58626Z" fill="var(--fill-0, #FF5B26)"/>
<path id="Vector_15" d="M90.2162 15.4327C90.4326 14.6847 91.2558 14.2273 92.0089 14.3C92.6648 14.3296 93.277 14.769 93.5301 15.3731C93.7389 15.8749 93.7203 16.4724 93.4557 16.9507C93.189 17.4568 92.6621 17.813 92.0948 17.8754C91.5045 17.9515 90.878 17.7195 90.4976 17.2576C90.1112 16.8073 89.9898 16.1583 90.1467 15.5909C90.1637 15.5509 90.1992 15.4721 90.2162 15.4333V15.4327Z" fill="var(--fill-0, #FF5B26)"/>
</g>
</svg>
