<svg preserveAspectRatio="none" width="100%" height="100%" overflow="visible" style="display: block;" viewBox="0 0 114.581 22.4003" fill="none" xmlns="http://www.w3.org/2000/svg">
<g id="Stabillity">
<path id="Vector" d="M35.9025 0.00116716C36.9147 0.0126583 37.9281 0.00991727 38.9415 0.00280368C38.9694 2.47888 38.9464 4.95715 38.953 7.43377C39.5531 6.51557 40.4752 5.82172 41.5257 5.50818C42.8911 5.08136 44.4368 5.30791 45.6273 6.1008C46.785 6.84937 47.5934 8.06032 47.9897 9.36977C48.3504 10.5731 48.4001 11.8628 48.1913 13.0978C47.9148 14.6716 47.0741 16.1731 45.7607 17.1055C44.6265 17.9252 43.1464 18.2645 41.7761 17.9498C40.5298 17.6888 39.4558 16.8659 38.7704 15.8048C38.6644 16.4538 38.5638 17.1044 38.4676 17.7551C37.6117 17.7633 36.7562 17.7496 35.9003 17.7622C35.8724 13.0311 35.897 8.2978 35.8888 3.56562C35.8975 2.3771 35.8702 1.18749 35.9025 7.16921e-05M41.4192 8.13036C40.6769 8.28576 40.0073 8.74267 39.5804 9.36812C39.0065 10.1955 38.8196 11.2489 38.9404 12.2382C39.0442 13.0967 39.4197 13.9427 40.0745 14.5206C40.7277 15.1115 41.6564 15.3714 42.5216 15.2308C43.3863 15.1186 44.1745 14.5884 44.6391 13.8535C45.2441 12.9047 45.3721 11.6997 45.1086 10.6163C44.8916 9.70575 44.3166 8.85868 43.477 8.41983C42.8534 8.08002 42.1117 8.0045 41.4197 8.13036H41.4192Z" fill="var(--fill-0, #FF5B26)"/>
<path id="Vector_2" d="M57.163 0.00571793C58.1812 0.00954832 59.1995 0.00900113 60.2183 0.00571793C60.2189 5.92368 60.2183 11.8422 60.2183 17.7601C59.1995 17.7569 58.1812 17.758 57.163 17.7601C57.163 11.8422 57.1624 5.92368 57.163 0.00571793Z" fill="var(--fill-0, #FF5B26)"/>
<path id="Vector_3" d="M52.1115 0.185309C52.7029 0.0890022 53.3403 0.308977 53.7174 0.78121C54.3061 1.46795 54.2104 2.62472 53.4895 3.18123C52.8483 3.70599 51.829 3.67754 51.2162 3.12049C50.7571 2.72103 50.5647 2.05399 50.7155 1.46739C50.8609 0.805282 51.4425 0.277238 52.111 0.184762L52.1115 0.185309Z" fill="var(--fill-0, #FF5B26)"/>
<path id="Vector_4" d="M64.6874 0.18828C65.2991 0.081029 65.9626 0.320706 66.3387 0.820846C66.8809 1.49664 66.7901 2.59541 66.1157 3.15137C65.5188 3.66956 64.5661 3.68981 63.9332 3.22469C63.5467 2.94781 63.3002 2.49309 63.2647 2.01976C63.1641 1.15738 63.8288 0.30538 64.688 0.187732L64.6874 0.18828Z" fill="var(--fill-0, #FF5B26)"/>
<path id="Vector_5" d="M112.289 0.259086C112.792 0.0900015 113.377 0.145269 113.822 0.444588C114.311 0.763605 114.607 1.3513 114.579 1.93461C114.571 2.59016 114.128 3.21123 113.516 3.44105C112.717 3.75679 111.698 3.42464 111.32 2.63284C110.857 1.75568 111.335 0.550196 112.289 0.259086Z" fill="var(--fill-0, #FF5B26)"/>
<path id="Vector_6" d="M12.3808 2.75924C13.3696 2.75759 14.3578 2.75595 15.3455 2.75978C15.3488 3.70151 15.3455 4.64379 15.3471 5.58662C16.4496 5.5899 17.5531 5.56692 18.6556 5.59811C18.6408 6.44244 18.649 7.28677 18.6507 8.1311C17.5499 8.13164 16.4496 8.13055 15.3487 8.13164C15.3466 9.82687 15.3439 11.5221 15.3499 13.2179C15.3537 13.9013 15.6685 14.6198 16.284 14.9607C17.0661 15.4105 18.015 15.3481 18.872 15.202C18.8759 16.0715 18.8622 16.9405 18.8786 17.8105C17.5291 18.1055 16.0544 18.1022 14.7748 17.5325C13.8107 17.1052 13.0619 16.2608 12.7082 15.2715C12.447 14.5629 12.3562 13.8012 12.3671 13.0488C12.3688 11.4121 12.366 9.77488 12.3677 8.13876C11.7823 8.12508 11.1969 8.13383 10.6115 8.13329C10.6131 7.28403 10.6137 6.43478 10.6115 5.58607C11.2013 5.58443 11.7916 5.58224 12.3808 5.58662V2.75924Z" fill="var(--fill-0, #FF5B26)"/>
<path id="Vector_7" d="M70.4127 2.75289C71.3977 2.76328 72.3821 2.75672 73.3671 2.75617C73.3671 3.70009 73.3567 4.64456 73.3725 5.58957C74.4739 5.57972 75.5753 5.58574 76.6772 5.58629C76.6772 6.43499 76.6777 7.28425 76.6772 8.1335C75.5731 8.13131 74.4701 8.13186 73.3671 8.13295C73.3622 9.79863 73.3671 11.4648 73.3649 13.13C73.3611 13.8298 73.6497 14.5746 74.2739 14.9423C75.0604 15.4206 76.0262 15.3396 76.8975 15.211C76.8778 16.0838 76.8991 16.9576 76.8871 17.8315C75.4665 18.0969 73.9148 18.1144 72.6019 17.4359C71.5617 16.9046 70.8325 15.8736 70.5713 14.7448C70.3379 13.8709 70.4057 12.962 70.3964 12.0684C70.3947 10.7562 70.3985 9.44459 70.3947 8.1335C69.806 8.13186 69.2174 8.13022 68.6287 8.13405C68.6271 7.2837 68.6282 6.43444 68.6287 5.58519C69.2234 5.58519 69.8186 5.58191 70.4127 5.58683C70.4106 4.64182 70.4106 3.6968 70.4133 2.75289H70.4127Z" fill="var(--fill-0, #FF5B26)"/>
<path id="Vector_8" d="M3.42061 5.41577C4.63622 5.20182 5.90264 5.28007 7.08818 5.62097C7.6058 5.77145 8.10864 5.97829 8.56449 6.26831C8.5716 7.16353 8.56943 8.0593 8.56615 8.95452C7.35546 8.12496 5.8502 7.73426 4.39027 7.8541C3.89889 7.91703 3.33753 8.08228 3.08391 8.54794C2.84396 8.96546 2.98934 9.54275 3.40092 9.79447C4.09235 10.2426 4.92151 10.3854 5.6993 10.6142C6.72797 10.9042 7.81244 11.2593 8.55798 12.0675C9.20569 12.7592 9.39643 13.7688 9.27836 14.6859C9.18435 15.6862 8.61482 16.6208 7.77691 17.1718C6.67117 17.9155 5.2921 18.1004 3.9885 18.0605C2.59799 18.0014 1.18232 17.6402 0.0399531 16.8189C0.0503383 15.8552 0.0350552 14.8905 0.0481733 13.9269C1.27799 15.0065 2.92376 15.6189 4.56407 15.4996C5.08934 15.4514 5.66051 15.3409 6.04257 14.9453C6.35139 14.6437 6.43393 14.1321 6.2224 13.754C6.02563 13.4235 5.66543 13.2446 5.32491 13.0985C4.0142 12.5649 2.55425 12.3887 1.35395 11.5986C0.734119 11.2046 0.244953 10.5852 0.0842564 9.85903C-0.117434 8.92715 0.0410421 7.90279 0.582161 7.1099C1.22549 6.16161 2.31706 5.6155 3.42061 5.41523V5.41577Z" fill="var(--fill-0, #FF5B26)"/>
<path id="Vector_9" d="M22.227 6.78671C23.1644 5.86139 24.4625 5.26878 25.7902 5.29997C27.0479 5.28957 28.3088 5.79682 29.1817 6.70736C29.4375 6.95032 29.6212 7.25402 29.8513 7.51831C29.942 6.87645 30.0568 6.23841 30.1405 5.59545C30.998 5.57083 31.8551 5.58834 32.7127 5.5867C32.7089 9.64418 32.7127 13.7022 32.7111 17.7597C31.8567 17.7564 31.003 17.7564 30.1487 17.7597C30.0525 17.108 29.9437 16.4585 29.8508 15.8062C29.3916 16.4579 28.8401 17.0609 28.1334 17.4467C26.902 18.1455 25.354 18.2642 24.0362 17.7411C22.8009 17.2661 21.7826 16.3063 21.1513 15.1517C20.3391 13.6803 20.1265 11.9194 20.4227 10.2756C20.6577 8.96948 21.2655 7.71202 22.2264 6.78671M25.9869 8.12187C25.2163 8.26578 24.5134 8.72434 24.0657 9.36784C23.4721 10.2089 23.2792 11.2907 23.4213 12.2997C23.5383 13.1375 23.917 13.9588 24.5609 14.5197C25.2387 15.1227 26.199 15.3816 27.0889 15.2229C27.9448 15.0921 28.7095 14.5422 29.1478 13.8023C29.7343 12.8289 29.8393 11.6119 29.5633 10.5219C29.3283 9.58617 28.6996 8.72434 27.8043 8.32871C27.2403 8.06387 26.5953 8.0272 25.9859 8.12187H25.9869Z" fill="var(--fill-0, #FF5B26)"/>
<path id="Vector_10" d="M98.5701 6.05035C99.6945 5.33078 101.112 5.11628 102.403 5.44788C103.312 5.67606 104.152 6.18606 104.767 6.89632C104.942 7.09495 105.081 7.32149 105.254 7.52341C105.355 6.87771 105.461 6.23202 105.554 5.58523C106.412 5.58358 107.27 5.58468 108.128 5.58523C108.136 9.63724 108.115 13.6909 108.139 17.7429C107.282 17.7807 106.422 17.744 105.565 17.7615C105.451 17.1109 105.358 16.457 105.254 15.8053C104.941 16.2354 104.618 16.6655 104.197 16.9971C102.924 18.0526 101.083 18.3541 99.5359 17.7763C98.2121 17.2958 97.1271 16.2616 96.4865 15.0168C95.7049 13.524 95.5388 11.7571 95.8618 10.1171C96.1887 8.48046 97.1353 6.93407 98.5701 6.05035ZM101.351 8.1308C100.384 8.31904 99.5583 9.02 99.1582 9.91303C98.8008 10.6594 98.7379 11.5109 98.8325 12.3245C98.9642 13.2586 99.4375 14.1686 100.22 14.7169C101.311 15.5027 102.94 15.449 103.941 14.5363C105.021 13.5864 105.31 11.9935 105.001 10.6364C104.789 9.68649 104.185 8.79729 103.296 8.36719C102.698 8.06623 102.002 8.01589 101.352 8.1308H101.351Z" fill="var(--fill-0, #FF5B26)"/>
<path id="Vector_11" d="M50.8719 5.58849C51.8918 5.58685 52.9123 5.57153 53.9322 5.5967C53.9191 9.6509 53.9301 13.7056 53.9273 17.7598C52.9101 17.7577 51.8918 17.7566 50.8746 17.7598C50.873 13.7029 50.8779 9.64598 50.8724 5.58849H50.8719Z" fill="var(--fill-0, #FF5B26)"/>
<path id="Vector_12" d="M63.457 5.59916C64.4758 5.56633 65.4968 5.59095 66.5162 5.58712C66.5113 9.64461 66.5157 13.7026 66.5135 17.7612C65.4963 17.7563 64.4785 17.7596 63.4614 17.7596C63.4608 13.7059 63.4712 9.65227 63.4564 5.59971L63.457 5.59916Z" fill="var(--fill-0, #FF5B26)"/>
<path id="Vector_13" d="M77.7939 5.58749C78.8903 5.57709 79.9868 5.59296 81.0838 5.57928C82.0556 8.3804 82.964 11.2039 83.938 14.0045C84.2327 13.3544 84.4092 12.6568 84.6557 11.9864C85.3499 9.92842 86.0544 7.8726 86.7459 5.81239C86.7852 5.72484 86.7983 5.55083 86.9393 5.5842C87.95 5.58475 88.9612 5.58092 89.9729 5.5864C87.7718 11.1925 85.5734 16.7991 83.3625 22.4002C82.3376 22.392 81.3122 22.404 80.2874 22.3936C80.969 20.717 81.6845 19.053 82.3524 17.3714C80.8515 13.4371 79.3052 9.51857 77.7939 5.58749Z" fill="var(--fill-0, #FF5B26)"/>
<path id="Vector_14" d="M111.34 5.58632C112.361 5.58304 113.382 5.58468 114.403 5.58577C114.396 9.6449 114.42 13.7051 114.392 17.7648C113.377 17.7533 112.362 17.7582 111.348 17.7626C111.328 13.704 111.343 9.64545 111.34 5.58687V5.58632Z" fill="var(--fill-0, #FF5B26)"/>
<path id="Vector_15" d="M90.2162 15.4328C90.4326 14.6848 91.2558 14.2273 92.0089 14.3001C92.6648 14.3296 93.277 14.769 93.5301 15.3731C93.7389 15.8749 93.7203 16.4725 93.4557 16.9507C93.189 17.4569 92.6621 17.8131 92.0948 17.8755C91.5045 17.9515 90.878 17.7195 90.4976 17.2577C90.1112 16.8074 89.9898 16.1584 90.1467 15.5909C90.1637 15.551 90.1992 15.4722 90.2162 15.4333V15.4328Z" fill="var(--fill-0, #FF5B26)"/>
</g>
</svg>
