<svg width="30" height="96" viewBox="0 0 30 96" fill="none" xmlns="http://www.w3.org/2000/svg">
<path d="M28.1552 0.672831C28.8606 0.698869 28.9497 0.779417 29.6205 0.97934C30.116 1.89654 29.9351 8.23352 29.9271 9.53748C29.8807 16.5884 29.7961 23.6451 29.666 30.6953L29.1045 72.2329C29.0475 77.2228 29.8482 91.6346 27.8503 95.2231C26.7589 95.656 6.60291 95.4385 4.16259 95.1563C2.84144 94.9602 1.64926 94.9335 0.58447 94.1926C-0.661662 92.454 0.451555 86.3586 0.586867 84.0376C0.904491 77.8197 1.10291 71.5969 1.19195 65.372L1.91593 24.8847C2.0791 16.9185 2.06065 7.83423 2.71325 0C11.1989 0.00964041 19.6816 0.232709 28.1601 0.674101L28.1552 0.672831Z" fill="white"/>
</svg>
