<svg preserveAspectRatio="none" width="100%" height="100%" overflow="visible" style="display: block;" viewBox="0 0 98.4252 86.7744" fill="none" xmlns="http://www.w3.org/2000/svg">
<g id="Group 210">
<path id="Vector" d="M46.0772 86.7744C54.7576 86.7744 61.7945 79.754 61.7945 71.0939C61.7945 62.4338 54.7576 55.4134 46.0772 55.4134C37.3968 55.4134 30.3599 62.4338 30.3599 71.0939C30.3599 79.754 37.3968 86.7744 46.0772 86.7744Z" fill="var(--fill-0, #07CFF5)"/>
<path id="Vector_2" d="M72.6582 57.2489C75.5044 54.6766 78.7067 51.9246 81.6075 49.3746L93.112 62.5268L96.458 66.3053C97.0026 66.9222 97.9426 67.9066 98.3616 68.5802L89.3448 76.4641C83.9226 70.876 79.1327 64.4449 73.7752 58.7742C73.4106 58.3888 72.8167 57.7654 72.6575 57.2514L72.6582 57.2489Z" fill="var(--fill-0, #00F053)"/>
<path id="Vector_3" d="M74.7577 39.4741C72.9682 39.3443 67.9585 39.9785 66.8466 39.2313C66.2634 37.873 66.4815 31.0185 66.4585 29.0239L66.2634 14.6703C66.2445 10.8151 65.9781 6.32569 66.0808 2.60859C66.0934 1.91163 66.1878 1.21676 66.3662 0.540735C67.2599 -0.0662251 74.8605 0.645383 76.3961 0.0781895C77.466 -0.317381 78.2527 0.863052 78.2737 1.93256C78.3241 4.36458 78.2339 6.8301 78.2653 9.28305L78.4374 25.7673C78.45 29.0762 78.3367 33.348 78.5653 36.5502C78.5653 37.4502 78.6723 38.2916 78.3136 39.089C77.5437 39.7524 75.9954 39.4218 74.7577 39.4741Z" fill="var(--fill-0, #FEFE02)"/>
<path id="Vector_4" d="M10.2629 7.81541C10.5482 7.75262 10.5923 7.77565 10.8818 7.78611C11.1755 8.10215 11.7608 10.6598 11.8929 11.183C12.6062 14.0127 13.3048 16.8487 13.9845 19.6867L18.0712 36.3865C18.5663 38.3915 20.3831 44.0823 19.9551 45.7274C19.5628 46.0141 11.465 48.0192 10.458 48.1594C9.90834 48.218 9.42793 48.331 8.92444 48.1448C8.24472 47.5776 8.05801 45.02 7.8713 44.076C7.35312 41.5519 6.78669 39.0383 6.17621 36.5351L2.26367 20.2393C1.50213 17.0307 0.551794 13.3932 5.18511e-05 10.1867C3.40072 9.30979 6.82236 8.51865 10.265 7.81541H10.2629Z" fill="var(--fill-0, #FE078D)"/>
</g>
</svg>
