<svg preserveAspectRatio="none" width="100%" height="100%" overflow="visible" style="display: block;" viewBox="0 0 130.849 20.3496" fill="none" xmlns="http://www.w3.org/2000/svg">
<g id="MonoDesk">
<path d="M10.4044 15.492L4.90584 0H0V19.9988H3.6463V6.19681L8.66327 19.9669H12.1455L17.1625 6.19681V19.9988H20.8088V0H15.903L10.4044 15.492Z" fill="var(--fill-0, #1C64F5)"/>
<path d="M33.7058 5.59095C32.605 4.94257 31.3137 4.61838 29.8372 4.61838C28.3607 4.61838 27.0641 4.94257 25.9528 5.59095C24.8414 6.23933 23.9788 7.14812 23.3702 8.32265C22.7616 9.49717 22.46 10.879 22.46 12.4787C22.46 14.0783 22.7616 15.4336 23.3702 16.6187C23.9788 17.8039 24.8361 18.718 25.9528 19.3664C27.0641 20.0147 28.3607 20.3389 29.8372 20.3389C31.3137 20.3389 32.605 20.0147 33.7058 19.3664C34.8066 18.718 35.6639 17.8039 36.2725 16.6187C36.8811 15.4336 37.1828 14.0571 37.1828 12.4787C37.1828 10.9002 36.8811 9.49717 36.2725 8.32265C35.6639 7.14812 34.8066 6.23933 33.7058 5.59095ZM32.5151 16.1085C31.8906 16.9695 30.9962 17.4053 29.8372 17.4053C28.6782 17.4053 27.7786 16.9748 27.1435 16.1085C26.5085 15.2476 26.1909 14.0358 26.1909 12.4733C26.1909 10.9109 26.5085 9.7257 27.1435 8.85411C27.7786 7.98251 28.6782 7.54672 29.8372 7.54672C30.9962 7.54672 31.8906 7.98251 32.5151 8.85411C33.1395 9.7257 33.4518 10.9321 33.4518 12.4733C33.4518 14.0146 33.1395 15.2422 32.5151 16.1085Z" fill="var(--fill-0, #1C64F5)"/>
<path d="M49.1748 5.35179C48.418 4.86285 47.4866 4.61838 46.3858 4.61838C45.5814 4.61838 44.8458 4.76719 44.1684 5.07012C43.4963 5.37305 42.9248 5.84073 42.459 6.47848C42.2368 6.78142 42.0515 7.13749 41.8981 7.5414L41.8134 4.95851H38.5587V19.9988H42.1468V11.4955C42.1468 10.22 42.4326 9.24207 43.0041 8.56712C43.5757 7.89216 44.3378 7.55203 45.2904 7.55203C45.9254 7.55203 46.4335 7.70615 46.8198 8.0144C47.2008 8.32265 47.4813 8.76907 47.6454 9.35368C47.8147 9.93828 47.8994 10.6504 47.8994 11.4955V19.9988H51.4875V10.3369C51.4875 9.21018 51.2917 8.22167 50.9 7.36602C50.5084 6.51037 49.9316 5.84073 49.1748 5.35179Z" fill="var(--fill-0, #1C64F5)"/>
<path d="M64.0246 5.59095C62.9238 4.94257 61.6326 4.61838 60.156 4.61838C58.6795 4.61838 57.3829 4.94257 56.2716 5.59095C55.1602 6.23933 54.2976 7.14812 53.689 8.32265C53.0804 9.49717 52.7788 10.879 52.7788 12.4787C52.7788 14.0783 53.0804 15.4336 53.689 16.6187C54.2976 17.8039 55.1549 18.718 56.2716 19.3664C57.3829 20.0147 58.6795 20.3389 60.156 20.3389C61.6326 20.3389 62.9238 20.0147 64.0246 19.3664C65.1254 18.718 65.9827 17.8039 66.5913 16.6187C67.1999 15.4336 67.5016 14.0571 67.5016 12.4787C67.5016 10.9002 67.1999 9.49717 66.5913 8.32265C65.9827 7.14812 65.1254 6.23933 64.0246 5.59095ZM62.8286 16.1085C62.2041 16.9695 61.3097 17.4053 60.1507 17.4053C58.9918 17.4053 58.0921 16.9748 57.457 16.1085C56.822 15.2476 56.5044 14.0358 56.5044 12.4733C56.5044 10.9109 56.822 9.7257 57.457 8.85411C58.0921 7.98251 58.9918 7.54672 60.1507 7.54672C61.3097 7.54672 62.2041 7.98251 62.8286 8.85411C63.4531 9.7257 63.7706 10.9321 63.7706 12.4733C63.7706 14.0146 63.4584 15.2422 62.8286 16.1085Z" fill="var(--fill-0, #1C64F5)"/>
<path d="M75.7732 3.25064e-07H69.1527V19.9935H75.9373C79.0597 19.9935 81.4623 19.1325 83.1452 17.4C84.8281 15.6727 85.6696 13.2121 85.6696 10.0233C85.6696 6.83456 84.8122 4.34202 83.1029 2.60415C81.3935 0.866279 78.9485 3.25064e-07 75.7679 3.25064e-07H75.7732ZM80.3986 15.1253C79.3878 16.252 77.8477 16.8154 75.7732 16.8154H72.799V3.18344H75.7732C77.8477 3.18344 79.3878 3.74679 80.3986 4.87348C81.4094 6.00017 81.9121 7.71678 81.9121 10.0286C81.9121 12.3405 81.4094 13.9986 80.3986 15.1253Z" fill="var(--fill-0, #1C64F5)"/>
<path d="M97.8257 5.58032C96.7514 4.94257 95.5024 4.62369 94.0841 4.62369C92.6658 4.62369 91.3481 4.9532 90.2579 5.60689C89.1624 6.2659 88.3157 7.18001 87.7229 8.35454C87.1249 9.52906 86.8233 10.9055 86.8233 12.4787C86.8233 14.0518 87.1196 15.4336 87.7229 16.6187C88.321 17.8039 89.173 18.718 90.2737 19.3664C91.3745 20.0147 92.6764 20.3389 94.1741 20.3389C95.894 20.3389 97.3547 19.9191 98.5613 19.0741C99.7679 18.229 100.578 17.0758 100.985 15.609L97.3123 15.3857C97.1059 16.0447 96.7355 16.5549 96.2063 16.9217C95.6718 17.2884 95.005 17.4691 94.2005 17.4691C93.1368 17.4691 92.2795 17.1342 91.6338 16.4699C90.9882 15.8056 90.6283 14.8118 90.5542 13.4991H101.181V12.6806C101.181 10.9906 100.89 9.545 100.313 8.34391C99.7308 7.14281 98.9053 6.22338 97.831 5.58563L97.8257 5.58032ZM90.549 11.0703C90.6971 9.90639 91.0835 9.01354 91.7132 8.39705C92.3377 7.77524 93.1315 7.467 94.0841 7.467C95.0367 7.467 95.8252 7.76462 96.4391 8.35454C97.0583 8.94446 97.4023 9.85325 97.4764 11.0703H90.549Z" fill="var(--fill-0, #1C64F5)"/>
<path d="M112.58 12.2395C111.675 11.8568 110.437 11.538 108.865 11.2988C108.119 11.166 107.521 11.0225 107.071 10.863C106.621 10.7036 106.298 10.491 106.103 10.2306C105.907 9.97017 105.806 9.64067 105.806 9.24739C105.806 8.68404 106.023 8.2323 106.452 7.89748C106.881 7.55735 107.516 7.39259 108.357 7.39259C108.918 7.39259 109.405 7.49357 109.818 7.69021C110.231 7.88685 110.553 8.17384 110.797 8.55117C111.04 8.92851 111.21 9.36962 111.3 9.87451L114.919 9.70444C114.787 8.72656 114.464 7.86028 113.951 7.10029C113.438 6.34031 112.723 5.73976 111.808 5.29865C110.892 4.85754 109.759 4.63432 108.415 4.63432C106.341 4.63432 104.764 5.07012 103.689 5.94171C102.615 6.8133 102.075 7.95594 102.075 9.36431C102.075 10.2253 102.255 10.9534 102.62 11.5327C102.986 12.1173 103.605 12.6009 104.483 12.9835C105.362 13.3662 106.568 13.6904 108.103 13.9561C109.019 14.1262 109.712 14.2962 110.178 14.461C110.643 14.6311 110.961 14.8277 111.13 15.0509C111.3 15.2741 111.384 15.5558 111.384 15.8959C111.384 16.4752 111.146 16.9057 110.67 17.1768C110.193 17.4478 109.532 17.586 108.69 17.586C107.664 17.586 106.886 17.3681 106.362 16.9376C105.838 16.5071 105.51 15.8959 105.378 15.1094L101.705 15.2794C101.779 16.2573 102.086 17.1289 102.631 17.8995C103.171 18.6702 103.943 19.2707 104.944 19.7012C105.944 20.1317 107.182 20.3496 108.659 20.3496C109.95 20.3496 111.077 20.1742 112.035 19.8287C112.993 19.4833 113.745 18.9678 114.279 18.2928C114.814 17.6179 115.078 16.7994 115.078 15.8428C115.078 15.019 114.888 14.3069 114.501 13.717C114.12 13.127 113.475 12.6381 112.564 12.2554L112.58 12.2395Z" fill="var(--fill-0, #1C64F5)"/>
<path d="M130.653 4.95851H126.223L120.079 11.7452V3.25064e-07H116.491V19.9988H120.079V15.8587L122.434 13.3502L126.811 19.9988H130.849L124.789 11.2085L130.653 4.95851Z" fill="var(--fill-0, #1C64F5)"/>
</g>
</svg>
