<svg preserveAspectRatio="none" width="100%" height="100%" overflow="visible" style="display: block;" viewBox="0 0 20.9376 15.7214" fill="none" xmlns="http://www.w3.org/2000/svg">
<g id="m">
<path d="M17.9351 0.29317C17.914 0.186878 17.8452 0.107159 17.7552 0.0433836C17.6547 -0.00976234 17.4959 0.000867897 17.1995 0.000867897H15.4531C15.035 0.00618249 14.8392 0.000866925 14.6487 0.0912149C14.5005 0.165619 14.3576 0.29317 14.2518 0.426035C14.1512 0.590787 14.1142 0.798057 14.0348 1.22854L13.5426 3.92835H17.3213L17.8822 0.856517C17.9351 0.5589 17.9669 0.404776 17.9351 0.29317Z" fill="var(--fill-0, #272727)"/>
<path d="M10.3462 0.298485C10.3144 0.192193 10.2456 0.117788 10.1662 0.0486983C10.0551 0.000867013 9.90693 0.00618063 9.59999 0.00618063H7.85357C7.44607 0.00618063 7.23968 0.00618169 7.05975 0.0965297C6.90098 0.170934 6.76868 0.298485 6.67342 0.431349C6.5517 0.601416 6.51465 0.808684 6.43527 1.23917L5.9431 3.93898H9.73229L10.2933 0.872459C10.3515 0.564213 10.3779 0.410091 10.3462 0.298485Z" fill="var(--fill-0, #272727)"/>
<path d="M7.59426 15.7161H11.394L13.5426 3.93366L9.73758 3.94429L7.59426 15.7161Z" fill="var(--fill-0, #272727)"/>
<path d="M20.9093 4.49701C20.8405 4.30037 20.7082 4.14625 20.5442 4.04527C20.3272 3.93367 20.0361 3.92304 19.4328 3.92835L17.3265 3.94429L15.1832 15.7214H18.9724L20.8035 5.66091C20.9146 5.04441 20.9728 4.73617 20.9146 4.49701H20.9093Z" fill="var(--fill-0, #272727)"/>
<path d="M2.96361 4.10905C2.66196 4.26317 2.37089 4.50764 2.16449 4.80526C1.93164 5.12413 1.85226 5.55461 1.69878 6.39432L0 15.7214H3.79977L5.9431 3.94429L4.55655 3.93366C3.72568 3.94961 3.31819 3.93366 2.96361 4.10905Z" fill="var(--fill-0, #272727)"/>
</g>
</svg>
